<svg width="217" height="240" viewBox="0 0 217 240" fill="none" xmlns="http://www.w3.org/2000/svg">
<rect width="217" height="240" fill="#363636"/>
<g clip-path="url(#clip0_89_2347)">
<path d="M172.366 79.8411C172.008 79.5714 168.769 77.3625 161.816 77.3625C159.988 77.3719 158.163 77.5159 156.361 77.7929C155.043 69.5461 147.429 65.5586 147.128 65.332L145.27 64.3623L144.071 65.9256C142.559 68.0479 141.445 70.3785 140.774 72.8244C139.512 77.5143 140.294 81.9322 142.932 85.7045C139.754 87.3221 134.601 87.6982 133.521 87.7436H48.3955C47.8651 87.7432 47.3398 87.8371 46.8499 88.0198C46.36 88.2024 45.9153 88.4703 45.5412 88.8078C45.1672 89.1454 44.8712 89.5461 44.6705 89.9867C44.4697 90.4274 44.3681 90.8993 44.3714 91.3754C44.257 98.0823 45.5193 104.751 48.0951 111.048C51.0337 117.947 55.4087 123.078 61.0334 126.191C67.4004 129.694 77.7712 131.688 89.4599 131.688C94.7481 131.688 100.025 131.255 105.226 130.394C112.476 129.214 119.45 126.936 125.849 123.658C131.117 120.911 135.854 117.417 139.878 113.311C146.651 106.467 150.668 98.8111 153.606 92.0143H154.805C162.18 92.0143 166.737 89.3725 169.253 87.1092C170.924 85.6882 172.233 83.9602 173.091 82.0432L173.631 80.6431L172.366 79.8411Z" fill="#3DA8E3"/>
<path d="M56.3099 85.5526H67.6981C67.966 85.5526 68.2228 85.4571 68.4122 85.2872C68.6016 85.1172 68.708 84.8867 68.708 84.6463V75.4751C68.708 75.2347 68.6016 75.0042 68.4122 74.8343C68.2228 74.6643 67.966 74.5688 67.6981 74.5688H56.3099C56.042 74.5688 55.7852 74.6643 55.5958 74.8343C55.4064 75.0042 55.3 75.2347 55.3 75.4751V84.6373C55.31 84.8748 55.4196 85.1001 55.6069 85.2682C55.7942 85.4362 56.0452 85.5346 56.3099 85.5435" fill="#3DA8E3"/>
<path d="M72.0152 85.5526H83.406C83.6738 85.5526 83.9307 85.4571 84.12 85.2872C84.3094 85.1172 84.4158 84.8867 84.4158 84.6463V75.4751C84.4158 75.2347 84.3094 75.0042 84.12 74.8343C83.9307 74.6643 83.6738 74.5688 83.406 74.5688H72.0152C71.7474 74.5688 71.4905 74.6643 71.3011 74.8343C71.1118 75.0042 71.0054 75.2347 71.0054 75.4751V84.6373C71.0154 84.8748 71.125 85.1001 71.3122 85.2682C71.4995 85.4362 71.7506 85.5346 72.0152 85.5435" fill="#3DA8E3"/>
<path d="M88.0209 85.5526H99.4066C99.6744 85.5526 99.9313 85.4571 100.121 85.2872C100.31 85.1172 100.416 84.8867 100.416 84.6463V75.4751C100.416 75.2347 100.31 75.0042 100.121 74.8343C99.9313 74.6643 99.6744 74.5688 99.4066 74.5688H88.0209C87.7531 74.5688 87.4962 74.6643 87.3068 74.8343C87.1175 75.0042 87.0111 75.2347 87.0111 75.4751V84.6373C87.0065 84.7574 87.0295 84.8771 87.0786 84.9889C87.1277 85.1007 87.202 85.2023 87.2967 85.2872C87.3914 85.3722 87.5045 85.4388 87.6291 85.4829C87.7537 85.527 87.887 85.5476 88.0209 85.5435" fill="#3DA8E3"/>
<path d="M103.789 85.5526H115.18C115.448 85.5526 115.705 85.4571 115.894 85.2872C116.083 85.1172 116.19 84.8867 116.19 84.6463V75.4751C116.19 75.2347 116.083 75.0042 115.894 74.8343C115.705 74.6643 115.448 74.5688 115.18 74.5688H103.789C103.521 74.5688 103.264 74.6643 103.075 74.8343C102.886 75.0042 102.779 75.2347 102.779 75.4751V84.6373C102.779 84.8776 102.886 85.1081 103.075 85.2781C103.264 85.4481 103.521 85.5435 103.789 85.5435" fill="#3DA8E3"/>
<path d="M72.0152 72.4574H83.406C83.6706 72.4484 83.9217 72.35 84.1089 72.182C84.2962 72.014 84.4058 71.7886 84.4158 71.5511V62.3799C84.4158 62.1395 84.3094 61.909 84.12 61.7391C83.9307 61.5691 83.6738 61.4736 83.406 61.4736H72.0152C71.7474 61.4736 71.4905 61.5691 71.3011 61.7391C71.1118 61.909 71.0054 62.1395 71.0054 62.3799V71.5421C71.0251 71.7765 71.1379 71.9969 71.3232 72.1631C71.5084 72.3294 71.7539 72.4306 72.0152 72.4483" fill="#3DA8E3"/>
<path d="M88.0208 72.4574H99.4065C99.6712 72.4484 99.9223 72.35 100.11 72.182C100.297 72.014 100.406 71.7886 100.416 71.5511V62.3799C100.416 62.1395 100.31 61.909 100.121 61.7391C99.9312 61.5691 99.6744 61.4736 99.4065 61.4736H88.0208C87.753 61.4736 87.4961 61.5691 87.3068 61.7391C87.1174 61.909 87.011 62.1395 87.011 62.3799V71.5421C87.011 71.7824 87.1174 72.0129 87.3068 72.1829C87.4961 72.3528 87.753 72.4483 88.0208 72.4483" fill="#3DA8E3"/>
<path d="M103.789 72.4574H115.18C115.445 72.4484 115.696 72.35 115.883 72.182C116.07 72.014 116.18 71.7886 116.19 71.5511V62.3799C116.18 62.1424 116.07 61.9171 115.883 61.749C115.696 61.581 115.445 61.4826 115.18 61.4736H103.789C103.521 61.4736 103.264 61.5691 103.075 61.7391C102.886 61.909 102.779 62.1395 102.779 62.3799V71.5421C102.789 71.7796 102.899 72.0049 103.086 72.1729C103.273 72.341 103.524 72.4393 103.789 72.4483" fill="#3DA8E3"/>
<path d="M103.789 59.3076H115.18C115.448 59.3076 115.705 59.2121 115.894 59.0421C116.083 58.8722 116.19 58.6417 116.19 58.4013V49.2188C116.18 48.9813 116.07 48.7559 115.883 48.5879C115.696 48.4198 115.445 48.3215 115.18 48.3125H103.789C103.521 48.3125 103.264 48.408 103.075 48.5779C102.886 48.7479 102.779 48.9784 102.779 49.2188V58.3809C102.79 58.6183 102.9 58.8433 103.087 59.0112C103.274 59.1792 103.525 59.2777 103.789 59.2872" fill="#3DA8E3"/>
<path d="M119.674 85.5526H131.064C131.332 85.5526 131.589 85.4571 131.778 85.2872C131.968 85.1172 132.074 84.8867 132.074 84.6463V75.4751C132.074 75.2347 131.968 75.0042 131.778 74.8343C131.589 74.6643 131.332 74.5688 131.064 74.5688H119.674C119.406 74.5688 119.149 74.6643 118.96 74.8343C118.77 75.0042 118.664 75.2347 118.664 75.4751V84.6373C118.674 84.8748 118.783 85.1001 118.971 85.2682C119.158 85.4362 119.409 85.5346 119.674 85.5435" fill="#3DA8E3"/>
</g>
<path d="M66.1307 199H58.3963V177.182H66.1946C68.3892 177.182 70.2784 177.619 71.8622 178.492C73.446 179.359 74.6641 180.605 75.5163 182.232C76.3757 183.858 76.8054 185.804 76.8054 188.07C76.8054 190.342 76.3757 192.295 75.5163 193.929C74.6641 195.562 73.4389 196.816 71.8409 197.69C70.25 198.563 68.3466 199 66.1307 199ZM63.0092 195.048H65.9389C67.3026 195.048 68.4496 194.806 69.38 194.323C70.3175 193.833 71.0206 193.077 71.4893 192.054C71.9652 191.024 72.2031 189.696 72.2031 188.07C72.2031 186.457 71.9652 185.14 71.4893 184.117C71.0206 183.094 70.321 182.342 69.3906 181.859C68.4602 181.376 67.3132 181.134 65.9496 181.134H63.0092V195.048ZM87.5307 199.32C85.8759 199.32 84.4448 198.968 83.2374 198.265C82.0371 197.555 81.1103 196.567 80.4569 195.303C79.8034 194.032 79.4767 192.558 79.4767 190.882C79.4767 189.192 79.8034 187.714 80.4569 186.45C81.1103 185.179 82.0371 184.192 83.2374 183.489C84.4448 182.778 85.8759 182.423 87.5307 182.423C89.1855 182.423 90.6131 182.778 91.8134 183.489C93.0208 184.192 93.9512 185.179 94.6046 186.45C95.258 187.714 95.5847 189.192 95.5847 190.882C95.5847 192.558 95.258 194.032 94.6046 195.303C93.9512 196.567 93.0208 197.555 91.8134 198.265C90.6131 198.968 89.1855 199.32 87.5307 199.32ZM87.552 195.804C88.3049 195.804 88.9334 195.591 89.4377 195.165C89.9419 194.732 90.3219 194.142 90.5776 193.396C90.8404 192.651 90.9718 191.802 90.9718 190.85C90.9718 189.898 90.8404 189.05 90.5776 188.304C90.3219 187.558 89.9419 186.969 89.4377 186.536C88.9334 186.102 88.3049 185.886 87.552 185.886C86.7921 185.886 86.1529 186.102 85.6344 186.536C85.123 186.969 84.736 187.558 84.4732 188.304C84.2175 189.05 84.0897 189.898 84.0897 190.85C84.0897 191.802 84.2175 192.651 84.4732 193.396C84.736 194.142 85.123 194.732 85.6344 195.165C86.1529 195.591 86.7921 195.804 87.552 195.804ZM105.929 199.32C104.253 199.32 102.811 198.964 101.604 198.254C100.404 197.537 99.4803 196.543 98.834 195.271C98.1948 194 97.8752 192.537 97.8752 190.882C97.8752 189.206 98.1983 187.736 98.8446 186.472C99.498 185.2 100.425 184.21 101.625 183.499C102.825 182.782 104.253 182.423 105.908 182.423C107.335 182.423 108.585 182.683 109.658 183.201C110.73 183.719 111.579 184.447 112.204 185.385C112.829 186.322 113.173 187.423 113.237 188.688H108.955C108.834 187.871 108.514 187.214 107.996 186.717C107.485 186.212 106.813 185.96 105.982 185.96C105.279 185.96 104.665 186.152 104.139 186.536C103.621 186.912 103.216 187.462 102.925 188.187C102.634 188.911 102.488 189.788 102.488 190.818C102.488 191.862 102.63 192.75 102.914 193.482C103.205 194.213 103.614 194.771 104.139 195.154C104.665 195.538 105.279 195.729 105.982 195.729C106.501 195.729 106.966 195.623 107.378 195.41C107.797 195.197 108.142 194.888 108.411 194.483C108.688 194.071 108.869 193.577 108.955 193.002H113.237C113.166 194.252 112.825 195.353 112.215 196.305C111.611 197.249 110.776 197.988 109.711 198.521C108.646 199.053 107.385 199.32 105.929 199.32ZM120.255 194.291L120.266 188.847H120.926L126.168 182.636H131.377L124.336 190.861H123.26L120.255 194.291ZM116.143 199V177.182H120.681V199H116.143ZM126.37 199L121.555 191.873L124.581 188.666L131.686 199H126.37ZM140.388 199.32C138.704 199.32 137.256 198.979 136.041 198.297C134.834 197.608 133.903 196.635 133.25 195.378C132.596 194.114 132.27 192.619 132.27 190.893C132.27 189.21 132.596 187.732 133.25 186.461C133.903 185.19 134.823 184.199 136.009 183.489C137.202 182.778 138.601 182.423 140.206 182.423C141.286 182.423 142.291 182.597 143.221 182.945C144.159 183.286 144.976 183.801 145.672 184.49C146.375 185.179 146.922 186.045 147.312 187.089C147.703 188.126 147.898 189.341 147.898 190.733V191.979H134.081V189.167H143.626C143.626 188.513 143.484 187.935 143.2 187.43C142.916 186.926 142.522 186.532 142.018 186.248C141.52 185.957 140.942 185.811 140.281 185.811C139.592 185.811 138.981 185.971 138.449 186.29C137.923 186.603 137.511 187.026 137.213 187.558C136.915 188.084 136.762 188.67 136.755 189.316V191.99C136.755 192.8 136.904 193.499 137.202 194.089C137.508 194.678 137.937 195.133 138.491 195.452C139.045 195.772 139.702 195.932 140.462 195.932C140.966 195.932 141.428 195.861 141.847 195.719C142.266 195.577 142.625 195.364 142.923 195.08C143.221 194.795 143.449 194.447 143.605 194.036L147.802 194.312C147.589 195.321 147.153 196.202 146.492 196.955C145.839 197.7 144.993 198.283 143.956 198.702C142.927 199.114 141.737 199.32 140.388 199.32ZM150.86 199V182.636H155.26V185.491H155.43C155.729 184.476 156.229 183.709 156.932 183.19C157.635 182.665 158.445 182.402 159.361 182.402C159.589 182.402 159.834 182.416 160.096 182.445C160.359 182.473 160.59 182.512 160.789 182.562V186.589C160.576 186.525 160.281 186.468 159.905 186.418C159.528 186.369 159.184 186.344 158.871 186.344C158.204 186.344 157.607 186.489 157.081 186.781C156.563 187.065 156.151 187.462 155.846 187.974C155.547 188.485 155.398 189.075 155.398 189.742V199H150.86Z" fill="#FDFDFD"/>
<defs>
<clipPath id="clip0_89_2347">
<rect width="129.257" height="116" fill="white" transform="translate(44.3713 32)"/>
</clipPath>
</defs>
</svg>
