<svg width="217" height="240" viewBox="0 0 217 240" fill="none" xmlns="http://www.w3.org/2000/svg">
<rect width="217" height="240" fill="#363636"/>
<path d="M89.6888 148C100.344 148 109 139.343 109 128.667V109.333H89.6888C79.0337 109.333 70.3776 117.99 70.3776 128.667C70.3776 139.343 79.0337 148 89.6888 148Z" fill="#0ACF83"/>
<path d="M70.3776 90.0001C70.3776 79.3328 79.0337 70.6667 89.6888 70.6667H109V109.333H89.6888C79.0337 109.333 70.3776 100.677 70.3776 90.0001Z" fill="#A259FF"/>
<path d="M70.3776 51.3333C70.3776 40.666 79.0337 32 89.6888 32H109V70.6667H89.6888C79.0337 70.6667 70.3776 62.0101 70.3776 51.3333Z" fill="#F24E1E"/>
<path d="M109 32H128.311C138.966 32 147.622 40.666 147.622 51.3333C147.622 62.0101 138.976 70.6667 128.311 70.6667H109V32Z" fill="#FF7262"/>
<path d="M147.622 90.0001C147.622 100.677 138.976 109.333 128.311 109.333C117.647 109.333 109 100.677 109 90.0001C109 79.3328 117.647 70.6667 128.311 70.6667C138.976 70.6667 147.622 79.3328 147.622 90.0001Z" fill="#1ABCFE"/>
<path d="M65.8963 199V177.182H80.3423V180.985H70.5092V186.184H79.3835V189.987H70.5092V199H65.8963ZM83.3599 199V182.636H87.8983V199H83.3599ZM85.6397 180.527C84.965 180.527 84.3862 180.303 83.9032 179.856C83.4274 179.401 83.1895 178.858 83.1895 178.226C83.1895 177.601 83.4274 177.065 83.9032 176.617C84.3862 176.163 84.965 175.935 85.6397 175.935C86.3145 175.935 86.8897 176.163 87.3656 176.617C87.8485 177.065 88.09 177.601 88.09 178.226C88.09 178.858 87.8485 179.401 87.3656 179.856C86.8897 180.303 86.3145 180.527 85.6397 180.527ZM98.9059 205.477C97.4357 205.477 96.1751 205.275 95.1239 204.87C94.0799 204.472 93.2489 203.929 92.631 203.24C92.0131 202.551 91.6119 201.777 91.4272 200.918L95.6246 200.353C95.7525 200.68 95.9549 200.985 96.2319 201.269C96.5089 201.553 96.8746 201.781 97.3292 201.951C97.7908 202.129 98.3519 202.217 99.0124 202.217C99.9996 202.217 100.813 201.976 101.452 201.493C102.098 201.017 102.422 200.218 102.422 199.096V196.102H102.23C102.031 196.557 101.733 196.987 101.335 197.391C100.937 197.796 100.426 198.126 99.8008 198.382C99.1758 198.638 98.43 198.766 97.5636 198.766C96.3349 198.766 95.2163 198.482 94.2077 197.913C93.2063 197.338 92.4073 196.461 91.8107 195.282C91.2212 194.096 90.9265 192.597 90.9265 190.786C90.9265 188.933 91.2283 187.384 91.832 186.141C92.4357 184.898 93.2383 183.968 94.2397 183.35C95.2482 182.732 96.3526 182.423 97.5529 182.423C98.4691 182.423 99.2362 182.58 99.854 182.892C100.472 183.197 100.969 183.581 101.346 184.043C101.729 184.497 102.024 184.945 102.23 185.385H102.4V182.636H106.907V199.16C106.907 200.552 106.566 201.717 105.884 202.654C105.202 203.592 104.257 204.295 103.05 204.763C101.85 205.239 100.468 205.477 98.9059 205.477ZM99.0018 195.357C99.7333 195.357 100.351 195.175 100.855 194.813C101.367 194.444 101.757 193.918 102.027 193.237C102.304 192.548 102.443 191.724 102.443 190.765C102.443 189.806 102.308 188.975 102.038 188.272C101.768 187.562 101.377 187.011 100.866 186.621C100.355 186.23 99.7333 186.035 99.0018 186.035C98.256 186.035 97.6275 186.237 97.1161 186.642C96.6048 187.04 96.2177 187.594 95.9549 188.304C95.6921 189.014 95.5607 189.835 95.5607 190.765C95.5607 191.71 95.6921 192.526 95.9549 193.215C96.2248 193.897 96.6119 194.426 97.1161 194.803C97.6275 195.172 98.256 195.357 99.0018 195.357ZM110.518 199V182.636H114.843V185.523H115.035C115.376 184.565 115.944 183.808 116.74 183.254C117.535 182.7 118.487 182.423 119.595 182.423C120.717 182.423 121.672 182.704 122.461 183.265C123.249 183.819 123.775 184.572 124.037 185.523H124.208C124.542 184.586 125.145 183.837 126.019 183.276C126.9 182.707 127.94 182.423 129.14 182.423C130.667 182.423 131.907 182.91 132.858 183.883C133.817 184.849 134.297 186.219 134.297 187.995V199H129.769V188.89C129.769 187.981 129.527 187.299 129.044 186.844C128.561 186.39 127.958 186.163 127.233 186.163C126.409 186.163 125.767 186.425 125.305 186.951C124.843 187.469 124.613 188.155 124.613 189.007V199H120.213V188.794C120.213 187.991 119.982 187.352 119.52 186.876C119.066 186.401 118.466 186.163 117.72 186.163C117.216 186.163 116.761 186.29 116.356 186.546C115.958 186.795 115.642 187.146 115.408 187.601C115.174 188.048 115.056 188.574 115.056 189.178V199H110.518ZM142.548 199.309C141.504 199.309 140.573 199.128 139.756 198.766C138.94 198.396 138.293 197.853 137.817 197.136C137.349 196.411 137.114 195.509 137.114 194.43C137.114 193.521 137.281 192.757 137.615 192.139C137.949 191.521 138.403 191.024 138.979 190.648C139.554 190.271 140.207 189.987 140.939 189.795C141.678 189.604 142.452 189.469 143.261 189.391C144.213 189.291 144.98 189.199 145.562 189.114C146.145 189.021 146.567 188.886 146.83 188.709C147.093 188.531 147.224 188.268 147.224 187.92V187.857C147.224 187.182 147.011 186.66 146.585 186.29C146.166 185.921 145.57 185.737 144.795 185.737C143.979 185.737 143.329 185.918 142.846 186.28C142.363 186.635 142.043 187.082 141.887 187.622L137.69 187.281C137.903 186.287 138.322 185.428 138.947 184.703C139.572 183.972 140.378 183.411 141.365 183.02C142.359 182.622 143.51 182.423 144.817 182.423C145.726 182.423 146.596 182.53 147.427 182.743C148.265 182.956 149.007 183.286 149.653 183.734C150.307 184.181 150.822 184.756 151.198 185.46C151.575 186.156 151.763 186.99 151.763 187.963V199H147.459V196.731H147.331C147.068 197.242 146.717 197.693 146.276 198.084C145.836 198.467 145.307 198.769 144.689 198.989C144.071 199.202 143.357 199.309 142.548 199.309ZM143.847 196.177C144.515 196.177 145.104 196.045 145.616 195.783C146.127 195.513 146.528 195.151 146.82 194.696C147.111 194.241 147.256 193.727 147.256 193.151V191.415C147.114 191.507 146.919 191.592 146.67 191.67C146.429 191.741 146.156 191.809 145.85 191.873C145.545 191.93 145.239 191.983 144.934 192.033C144.629 192.075 144.352 192.114 144.103 192.15C143.57 192.228 143.105 192.352 142.707 192.523C142.31 192.693 142.001 192.924 141.781 193.215C141.56 193.499 141.45 193.854 141.45 194.281C141.45 194.898 141.674 195.371 142.121 195.697C142.576 196.017 143.151 196.177 143.847 196.177Z" fill="#FDFDFD"/>
</svg>
