<svg width="217" height="240" viewBox="0 0 217 240" fill="none" xmlns="http://www.w3.org/2000/svg">
<rect width="217" height="240" fill="#363636"/>
<path d="M93.6491 65.2754L94.0026 72.9402L88.3463 82.9379L79.5082 99.2673L77.7406 112.931L84.104 132.259L98.5984 139.924H120.517L141.021 125.261L150.213 102.267L129.001 77.939L122.991 64.2756L93.6491 65.2754Z" fill="white"/>
<path d="M143.849 84.2707C138.193 76.6058 133.597 71.9403 131.122 62.2759C128.648 52.6115 131.829 55.2776 129.708 46.9462C128.648 42.6139 126.88 39.6147 125.113 37.2819C122.991 34.9491 120.517 33.6161 119.103 33.2828C115.921 31.6166 108.497 28.9505 99.3055 33.6161C89.7604 38.2816 90.8209 48.2793 92.5886 68.6077C92.5886 69.9408 92.235 71.607 91.528 72.94C90.1139 75.9393 87.6393 78.6053 85.5181 80.9381C83.0435 84.2707 80.5688 87.6032 78.8012 91.269C74.5589 98.9338 70.6702 108.598 71.7308 112.264C73.4984 111.931 95.7703 143.923 95.7703 144.59C97.1843 144.256 103.194 144.256 108.497 144.256C115.921 143.923 120.163 143.59 126.173 144.923C126.173 143.923 125.82 142.923 125.82 141.924C125.82 139.924 126.173 138.258 126.527 135.925C126.88 134.259 127.234 132.592 127.587 130.593C124.052 133.592 117.689 136.925 111.679 137.925C106.376 138.924 97.5379 137.258 93.2956 132.259C93.6491 132.259 94.3562 132.259 94.7097 131.926C95.7703 131.593 96.8308 131.259 97.1843 130.593C98.2449 128.927 97.5379 127.26 96.8308 126.261C96.1238 125.261 90.821 121.595 88.3463 119.596C85.8716 117.596 84.4576 116.596 83.0435 115.263C83.0435 115.263 80.9223 113.264 80.2153 112.597C79.5082 111.931 79.1547 111.264 78.8012 110.931C78.0942 109.265 77.7406 107.265 78.0942 104.599C78.4477 100.933 79.8618 97.9341 81.6294 94.6015C82.3364 93.2685 84.104 90.6025 84.104 90.6025C84.104 90.6025 78.0942 104.599 81.2759 108.931C81.2759 108.931 81.6294 104.599 83.0435 100.267C84.104 97.2676 85.8716 92.9353 87.9928 90.6025C90.1139 88.2697 95.4167 79.6051 95.7703 74.273C95.7703 71.9403 96.1238 69.6075 96.1238 67.9412C94.7097 66.6082 119.456 63.2757 120.87 66.9415C121.224 68.2745 126.173 80.2716 129.001 86.6034C130.415 89.6027 132.183 92.2688 133.244 95.6013C134.304 99.2671 135.011 104.266 135.011 109.265C135.011 110.264 135.011 111.931 134.658 113.597C135.365 113.597 149.152 99.6003 132.89 87.9365C132.89 87.9365 142.789 92.2688 143.142 100.933C143.496 107.932 140.314 113.597 139.607 114.597C139.96 114.597 147.031 117.596 147.384 117.596C148.799 117.596 151.627 116.596 151.627 116.596C151.98 115.597 153.041 112.93 153.041 111.931C155.515 104.266 149.506 91.9355 143.849 84.2707Z" fill="#5B5B5B"/>
<path d="M98.952 62.276C101.49 62.276 103.548 59.2919 103.548 55.6109C103.548 51.9299 101.49 48.9458 98.952 48.9458C96.4138 48.9458 94.3562 51.9299 94.3562 55.6109C94.3562 59.2919 96.4138 62.276 98.952 62.276Z" fill="white"/>
<path d="M114.861 62.9425C118.18 62.9425 120.87 59.5108 120.87 55.2776C120.87 51.0445 118.18 47.6128 114.861 47.6128C111.541 47.6128 108.851 51.0445 108.851 55.2776C108.851 59.5108 111.541 62.9425 114.861 62.9425Z" fill="white"/>
<path d="M101.519 56.0669C101.225 53.8757 99.8881 52.2304 98.5321 52.3919C97.1762 52.5535 96.3152 54.4608 96.609 56.6519C96.9028 58.8431 98.2402 60.4884 99.5961 60.3269C100.952 60.1653 101.813 58.258 101.519 56.0669Z" fill="#171717"/>
<path d="M114.507 60.9427C116.459 60.9427 118.042 59.003 118.042 56.6104C118.042 54.2177 116.459 52.2781 114.507 52.2781C112.554 52.2781 110.972 54.2177 110.972 56.6104C110.972 59.003 112.554 60.9427 114.507 60.9427Z" fill="#171717"/>
<path d="M161.525 129.926C160.111 129.26 157.637 128.26 155.515 125.261C154.455 123.595 154.808 118.929 153.041 116.929C151.98 115.596 150.566 116.263 150.213 116.263C147.031 116.929 139.607 121.595 134.658 116.263C133.951 115.596 132.89 114.597 131.122 114.597C129.355 114.597 128.648 115.263 127.941 116.596C127.234 117.929 127.234 118.929 127.234 122.262C127.234 124.928 127.234 127.927 126.88 130.26C126.173 135.925 125.113 139.257 125.113 142.59C125.113 146.256 126.173 148.589 127.587 149.588C128.648 150.588 130.415 151.255 134.304 151.255C138.193 151.255 140.668 149.922 143.142 147.589C144.91 145.923 146.324 145.256 151.273 141.923C155.162 139.591 161.172 136.591 162.232 135.592C162.939 134.925 164 134.592 164 132.592C164 130.926 162.586 130.26 161.525 129.926Z" fill="#FFC045"/>
<path d="M90.4674 130.926C86.9322 125.594 86.5787 124.595 84.104 121.262C81.9829 117.929 77.3871 111.598 74.559 111.598C72.4378 111.598 71.3773 112.597 69.9632 113.93C68.5491 115.263 67.135 118.263 64.6603 119.929C62.5392 121.595 56.5293 121.262 55.1153 123.262C53.7012 125.261 56.5293 128.26 56.5293 133.259C56.5293 135.259 54.7617 136.592 54.4082 137.925C54.0547 139.591 53.7012 140.591 54.4082 141.924C55.8223 143.923 57.5899 144.59 69.6097 146.923C75.973 148.256 81.9829 151.588 85.8717 151.921C89.7604 152.255 96.4773 151.921 96.4773 142.924C96.8308 137.591 93.6491 136.258 90.4674 130.926Z" fill="#FFC045"/>
<path d="M97.1844 70.6072C95.0633 69.2742 93.2957 67.9412 93.2957 65.9417C93.2957 63.9422 94.7097 63.2757 96.8309 61.6094C97.1844 61.2761 101.073 57.9436 104.962 57.9436C108.851 57.9436 113.446 60.2764 115.214 60.9429C118.396 61.6094 121.577 62.2759 121.224 64.6087C120.87 67.9412 120.517 68.6077 116.982 70.274C114.507 70.9405 109.911 74.6063 106.729 74.6063C105.315 74.6063 103.194 74.6063 101.78 74.273C100.72 73.9398 98.952 72.2735 97.1844 70.6072Z" fill="#FFC045"/>
<path d="M96.4773 67.9415C97.1844 68.608 98.2449 69.2745 99.3055 69.6078C100.013 69.941 101.073 70.2743 101.073 70.2743C102.487 70.2743 103.548 70.2743 104.255 70.2743C106.022 70.2743 108.497 69.6078 110.972 68.2748C113.446 67.275 113.8 66.6085 115.567 65.942C117.335 64.9422 119.103 63.9425 118.396 63.6092C117.689 63.276 116.982 63.6092 114.507 64.9422C112.386 66.2752 110.618 66.9417 108.497 67.9415C107.436 68.2748 106.022 68.9413 104.962 68.9413C103.901 68.9413 102.841 68.9413 101.78 68.9413C100.72 68.9413 100.013 68.608 98.952 68.2748C98.2449 67.9415 97.8914 67.6083 97.5379 67.6083C96.8308 67.275 95.4168 65.942 94.7097 65.6087C94.7097 65.6087 94.0027 65.6087 94.3562 65.942C95.4168 66.9417 95.7703 67.275 96.4773 67.9415Z" fill="black"/>
<path d="M107.083 60.61C107.437 61.2765 108.144 61.2765 108.497 61.6098C108.851 61.943 109.204 61.943 109.204 61.943C109.558 61.6098 109.204 60.9433 108.851 60.9433C108.851 60.2768 107.083 60.2768 107.083 60.61Z" fill="black"/>
<path d="M101.427 61.2761C101.427 61.6094 102.134 61.9426 102.134 61.6094C102.487 61.2761 102.841 60.9429 103.194 60.9429C103.901 60.6096 103.548 60.2764 102.487 60.2764C101.78 60.6096 101.78 60.9429 101.427 61.2761Z" fill="black"/>
<path d="M135.718 120.262C135.718 120.595 135.718 120.929 135.718 121.262C136.425 122.595 138.193 122.928 139.607 122.928C141.728 122.928 143.849 121.595 144.91 120.262C144.91 119.929 145.263 119.596 145.617 119.262C146.324 118.263 146.677 117.596 147.031 117.263C147.031 117.263 146.677 116.93 146.677 116.596C146.324 115.93 145.263 115.263 143.849 114.93C142.789 114.597 141.021 114.264 140.314 114.264C137.132 113.93 135.365 114.93 134.304 115.93C134.304 115.93 134.658 115.93 134.658 116.263C135.365 116.93 135.718 117.596 135.718 118.596C136.072 119.262 135.718 119.596 135.718 120.262Z" fill="black"/>
<path d="M70.8963 199V177.182H75.5092V195.197H84.8629V199H70.8963ZM87.8326 199V182.636H92.3709V199H87.8326ZM90.1124 180.527C89.4377 180.527 88.8588 180.303 88.3759 179.856C87.9 179.401 87.6621 178.858 87.6621 178.226C87.6621 177.601 87.9 177.065 88.3759 176.617C88.8588 176.163 89.4377 175.935 90.1124 175.935C90.7871 175.935 91.3624 176.163 91.8382 176.617C92.3212 177.065 92.5627 177.601 92.5627 178.226C92.5627 178.858 92.3212 179.401 91.8382 179.856C91.3624 180.303 90.7871 180.527 90.1124 180.527ZM100.545 189.54V199H96.0064V182.636H100.332V185.523H100.523C100.886 184.572 101.493 183.819 102.345 183.265C103.197 182.704 104.231 182.423 105.445 182.423C106.582 182.423 107.572 182.672 108.418 183.169C109.263 183.666 109.92 184.376 110.388 185.3C110.857 186.216 111.092 187.31 111.092 188.581V199H106.553V189.391C106.56 188.389 106.305 187.608 105.786 187.047C105.268 186.479 104.554 186.195 103.645 186.195C103.034 186.195 102.494 186.326 102.026 186.589C101.564 186.852 101.202 187.235 100.939 187.739C100.683 188.237 100.552 188.837 100.545 189.54ZM125.162 192.033V182.636H129.7V199H125.343V196.028H125.173C124.803 196.987 124.189 197.757 123.33 198.339C122.477 198.922 121.437 199.213 120.208 199.213C119.115 199.213 118.152 198.964 117.321 198.467C116.49 197.97 115.84 197.263 115.372 196.347C114.91 195.431 114.676 194.334 114.669 193.055V182.636H119.207V192.246C119.214 193.212 119.473 193.975 119.985 194.536C120.496 195.097 121.181 195.378 122.041 195.378C122.588 195.378 123.099 195.254 123.575 195.005C124.051 194.749 124.434 194.373 124.725 193.876C125.024 193.379 125.169 192.764 125.162 192.033ZM137.123 182.636L140.127 188.357L143.206 182.636H147.862L143.121 190.818L147.99 199H143.355L140.127 193.343L136.953 199H132.265L137.123 190.818L132.436 182.636H137.123Z" fill="#FDFDFD"/>
</svg>
