<svg width="217" height="240" viewBox="0 0 217 240" fill="none" xmlns="http://www.w3.org/2000/svg">
<rect width="217" height="240" fill="#363636"/>
<path d="M162 85.0182C161.99 114.275 138.275 137.99 109.018 138L162 85.0182ZM109 32C130.522 32 149.048 44.8277 157.348 63.2547L87.2547 133.348C84.2622 132 81.4017 130.376 78.7101 128.497L122.207 85H109L71.5232 122.477C61.9323 112.885 56 99.635 56 85C56 55.7291 79.7291 32 109 32Z" fill="#FCFCFC"/>
<path d="M23.3963 199V177.182H32.0043C33.6591 177.182 35.0689 177.498 36.2337 178.13C37.3984 178.755 38.2862 179.625 38.897 180.74C39.5149 181.848 39.8239 183.126 39.8239 184.575C39.8239 186.024 39.5114 187.303 38.8864 188.411C38.2614 189.518 37.3558 190.381 36.1697 190.999C34.9908 191.617 33.5632 191.926 31.8871 191.926H26.4006V188.229H31.1413C32.0291 188.229 32.7607 188.077 33.3359 187.771C33.9183 187.459 34.3516 187.029 34.6357 186.482C34.9268 185.928 35.0724 185.293 35.0724 184.575C35.0724 183.851 34.9268 183.219 34.6357 182.679C34.3516 182.132 33.9183 181.71 33.3359 181.411C32.7536 181.106 32.0149 180.953 31.12 180.953H28.0092V199H23.3963ZM47.2733 177.182V199H42.7349V177.182H47.2733ZM55.5749 199.309C54.5309 199.309 53.6005 199.128 52.7837 198.766C51.967 198.396 51.3207 197.853 50.8448 197.136C50.3761 196.411 50.1417 195.509 50.1417 194.43C50.1417 193.521 50.3086 192.757 50.6424 192.139C50.9762 191.521 51.4308 191.024 52.006 190.648C52.5813 190.271 53.2347 189.987 53.9663 189.795C54.7049 189.604 55.479 189.469 56.2887 189.391C57.2404 189.291 58.0075 189.199 58.5898 189.114C59.1722 189.021 59.5948 188.886 59.8576 188.709C60.1204 188.531 60.2518 188.268 60.2518 187.92V187.857C60.2518 187.182 60.0387 186.66 59.6126 186.29C59.1935 185.921 58.5969 185.737 57.8228 185.737C57.006 185.737 56.3562 185.918 55.8732 186.28C55.3903 186.635 55.0707 187.082 54.9144 187.622L50.717 187.281C50.93 186.287 51.3491 185.428 51.9741 184.703C52.5991 183.972 53.4052 183.411 54.3924 183.02C55.3867 182.622 56.5373 182.423 57.8441 182.423C58.7532 182.423 59.6232 182.53 60.4542 182.743C61.2923 182.956 62.0344 183.286 62.6808 183.734C63.3342 184.181 63.8491 184.756 64.2255 185.46C64.6019 186.156 64.7901 186.99 64.7901 187.963V199H60.4862V196.731H60.3583C60.0955 197.242 59.744 197.693 59.3036 198.084C58.8633 198.467 58.3342 198.769 57.7163 198.989C57.0984 199.202 56.3846 199.309 55.5749 199.309ZM56.8746 196.177C57.5423 196.177 58.1317 196.045 58.6431 195.783C59.1545 195.513 59.5558 195.151 59.8469 194.696C60.1381 194.241 60.2837 193.727 60.2837 193.151V191.415C60.1417 191.507 59.9464 191.592 59.6978 191.67C59.4563 191.741 59.1829 191.809 58.8775 191.873C58.5721 191.93 58.2667 191.983 57.9613 192.033C57.6559 192.075 57.3789 192.114 57.1303 192.15C56.5977 192.228 56.1325 192.352 55.7347 192.523C55.337 192.693 55.0281 192.924 54.8079 193.215C54.5877 193.499 54.4776 193.854 54.4776 194.281C54.4776 194.898 54.7013 195.371 55.1488 195.697C55.6033 196.017 56.1786 196.177 56.8746 196.177ZM72.8494 189.54V199H68.3111V182.636H72.6364V185.523H72.8281C73.1903 184.572 73.7976 183.819 74.6499 183.265C75.5021 182.704 76.5355 182.423 77.75 182.423C78.8864 182.423 79.8771 182.672 80.7223 183.169C81.5675 183.666 82.2244 184.376 82.6932 185.3C83.1619 186.216 83.3963 187.31 83.3963 188.581V199H78.858V189.391C78.8651 188.389 78.6094 187.608 78.0909 187.047C77.5724 186.479 76.8587 186.195 75.9496 186.195C75.3388 186.195 74.799 186.326 74.3303 186.589C73.8686 186.852 73.5064 187.235 73.2436 187.739C72.9879 188.237 72.8565 188.837 72.8494 189.54ZM94.4306 199.32C92.7473 199.32 91.2985 198.979 90.084 198.297C88.8766 197.608 87.9462 196.635 87.2928 195.378C86.6394 194.114 86.3127 192.619 86.3127 190.893C86.3127 189.21 86.6394 187.732 87.2928 186.461C87.9462 185.19 88.8659 184.199 90.052 183.489C91.2452 182.778 92.6444 182.423 94.2495 182.423C95.329 182.423 96.334 182.597 97.2644 182.945C98.2019 183.286 99.0186 183.801 99.7147 184.49C100.418 185.179 100.965 186.045 101.355 187.089C101.746 188.126 101.941 189.341 101.941 190.733V191.979H88.1238V189.167H97.6692C97.6692 188.513 97.5272 187.935 97.2431 187.43C96.959 186.926 96.5648 186.532 96.0605 186.248C95.5634 185.957 94.9846 185.811 94.324 185.811C93.6351 185.811 93.0243 185.971 92.4917 186.29C91.9661 186.603 91.5542 187.026 91.2559 187.558C90.9576 188.084 90.8049 188.67 90.7978 189.316V191.99C90.7978 192.8 90.9469 193.499 91.2452 194.089C91.5506 194.678 91.9803 195.133 92.5343 195.452C93.0882 195.772 93.7452 195.932 94.5051 195.932C95.0094 195.932 95.4711 195.861 95.8901 195.719C96.3091 195.577 96.6678 195.364 96.9661 195.08C97.2644 194.795 97.4917 194.447 97.6479 194.036L101.845 194.312C101.632 195.321 101.195 196.202 100.535 196.955C99.8816 197.7 99.0364 198.283 97.9995 198.702C96.9696 199.114 95.78 199.32 94.4306 199.32ZM113.607 182.636V186.045H103.752V182.636H113.607ZM105.99 178.716H110.528V193.972C110.528 194.391 110.592 194.717 110.72 194.952C110.847 195.179 111.025 195.339 111.252 195.431C111.487 195.523 111.757 195.57 112.062 195.57C112.275 195.57 112.488 195.552 112.701 195.516C112.914 195.474 113.078 195.442 113.191 195.42L113.905 198.798C113.678 198.869 113.358 198.95 112.946 199.043C112.534 199.142 112.034 199.202 111.444 199.224C110.35 199.266 109.392 199.121 108.568 198.787C107.751 198.453 107.115 197.935 106.661 197.232C106.206 196.528 105.982 195.641 105.99 194.568V178.716ZM128.484 183.457C128.399 182.597 128.033 181.93 127.387 181.454C126.741 180.978 125.863 180.74 124.756 180.74C124.003 180.74 123.367 180.847 122.849 181.06C122.33 181.266 121.932 181.553 121.655 181.923C121.385 182.292 121.251 182.711 121.251 183.18C121.236 183.57 121.318 183.911 121.496 184.202C121.68 184.494 121.932 184.746 122.252 184.959C122.572 185.165 122.941 185.346 123.36 185.502C123.779 185.651 124.226 185.779 124.702 185.886L126.662 186.354C127.614 186.567 128.488 186.852 129.283 187.207C130.079 187.562 130.768 187.999 131.35 188.517C131.932 189.036 132.383 189.646 132.703 190.349C133.03 191.053 133.197 191.859 133.204 192.768C133.197 194.103 132.856 195.261 132.181 196.241C131.513 197.214 130.547 197.97 129.283 198.51C128.026 199.043 126.51 199.309 124.734 199.309C122.973 199.309 121.439 199.039 120.132 198.499C118.832 197.96 117.817 197.161 117.085 196.102C116.361 195.037 115.981 193.719 115.945 192.15H120.409C120.459 192.881 120.668 193.492 121.037 193.982C121.414 194.465 121.915 194.831 122.54 195.08C123.172 195.321 123.885 195.442 124.681 195.442C125.462 195.442 126.14 195.328 126.716 195.101C127.298 194.874 127.749 194.558 128.069 194.153C128.388 193.748 128.548 193.283 128.548 192.757C128.548 192.267 128.403 191.855 128.111 191.521C127.827 191.187 127.408 190.903 126.854 190.669C126.307 190.435 125.636 190.222 124.841 190.03L122.465 189.433C120.626 188.986 119.173 188.286 118.108 187.335C117.042 186.383 116.513 185.101 116.52 183.489C116.513 182.168 116.865 181.013 117.575 180.026C118.292 179.039 119.276 178.268 120.526 177.714C121.776 177.161 123.197 176.884 124.787 176.884C126.407 176.884 127.82 177.161 129.028 177.714C130.242 178.268 131.187 179.039 131.861 180.026C132.536 181.013 132.884 182.157 132.905 183.457H128.484ZM143.615 199.32C141.939 199.32 140.497 198.964 139.289 198.254C138.089 197.537 137.166 196.543 136.52 195.271C135.88 194 135.561 192.537 135.561 190.882C135.561 189.206 135.884 187.736 136.53 186.472C137.184 185.2 138.11 184.21 139.311 183.499C140.511 182.782 141.939 182.423 143.593 182.423C145.021 182.423 146.271 182.683 147.343 183.201C148.416 183.719 149.265 184.447 149.89 185.385C150.515 186.322 150.859 187.423 150.923 188.688H146.64C146.52 187.871 146.2 187.214 145.681 186.717C145.17 186.212 144.499 185.96 143.668 185.96C142.965 185.96 142.35 186.152 141.825 186.536C141.306 186.912 140.902 187.462 140.61 188.187C140.319 188.911 140.174 189.788 140.174 190.818C140.174 191.862 140.316 192.75 140.6 193.482C140.891 194.213 141.299 194.771 141.825 195.154C142.35 195.538 142.965 195.729 143.668 195.729C144.186 195.729 144.652 195.623 145.064 195.41C145.483 195.197 145.827 194.888 146.097 194.483C146.374 194.071 146.555 193.577 146.64 193.002H150.923C150.852 194.252 150.511 195.353 149.9 196.305C149.297 197.249 148.462 197.988 147.397 198.521C146.331 199.053 145.071 199.32 143.615 199.32ZM158.495 199.309C157.451 199.309 156.52 199.128 155.704 198.766C154.887 198.396 154.241 197.853 153.765 197.136C153.296 196.411 153.062 195.509 153.062 194.43C153.062 193.521 153.229 192.757 153.562 192.139C153.896 191.521 154.351 191.024 154.926 190.648C155.501 190.271 156.155 189.987 156.886 189.795C157.625 189.604 158.399 189.469 159.209 189.391C160.16 189.291 160.927 189.199 161.51 189.114C162.092 189.021 162.515 188.886 162.778 188.709C163.04 188.531 163.172 188.268 163.172 187.92V187.857C163.172 187.182 162.959 186.66 162.532 186.29C162.113 185.921 161.517 185.737 160.743 185.737C159.926 185.737 159.276 185.918 158.793 186.28C158.31 186.635 157.991 187.082 157.834 187.622L153.637 187.281C153.85 186.287 154.269 185.428 154.894 184.703C155.519 183.972 156.325 183.411 157.312 183.02C158.307 182.622 159.457 182.423 160.764 182.423C161.673 182.423 162.543 182.53 163.374 182.743C164.212 182.956 164.954 183.286 165.601 183.734C166.254 184.181 166.769 184.756 167.145 185.46C167.522 186.156 167.71 186.99 167.71 187.963V199H163.406V196.731H163.278C163.015 197.242 162.664 197.693 162.224 198.084C161.783 198.467 161.254 198.769 160.636 198.989C160.018 199.202 159.305 199.309 158.495 199.309ZM159.795 196.177C160.462 196.177 161.052 196.045 161.563 195.783C162.074 195.513 162.476 195.151 162.767 194.696C163.058 194.241 163.204 193.727 163.204 193.151V191.415C163.062 191.507 162.866 191.592 162.618 191.67C162.376 191.741 162.103 191.809 161.797 191.873C161.492 191.93 161.187 191.983 160.881 192.033C160.576 192.075 160.299 192.114 160.05 192.15C159.518 192.228 159.052 192.352 158.655 192.523C158.257 192.693 157.948 192.924 157.728 193.215C157.508 193.499 157.398 193.854 157.398 194.281C157.398 194.898 157.621 195.371 158.069 195.697C158.523 196.017 159.099 196.177 159.795 196.177ZM175.769 177.182V199H171.231V177.182H175.769ZM186.862 199.32C185.179 199.32 183.73 198.979 182.516 198.297C181.308 197.608 180.378 196.635 179.724 195.378C179.071 194.114 178.744 192.619 178.744 190.893C178.744 189.21 179.071 187.732 179.724 186.461C180.378 185.19 181.298 184.199 182.484 183.489C183.677 182.778 185.076 182.423 186.681 182.423C187.761 182.423 188.766 182.597 189.696 182.945C190.634 183.286 191.45 183.801 192.146 184.49C192.849 185.179 193.396 186.045 193.787 187.089C194.178 188.126 194.373 189.341 194.373 190.733V191.979H180.555V189.167H190.101C190.101 188.513 189.959 187.935 189.675 187.43C189.391 186.926 188.996 186.532 188.492 186.248C187.995 185.957 187.416 185.811 186.756 185.811C186.067 185.811 185.456 185.971 184.923 186.29C184.398 186.603 183.986 187.026 183.688 187.558C183.389 188.084 183.237 188.67 183.229 189.316V191.99C183.229 192.8 183.379 193.499 183.677 194.089C183.982 194.678 184.412 195.133 184.966 195.452C185.52 195.772 186.177 195.932 186.937 195.932C187.441 195.932 187.903 195.861 188.322 195.719C188.741 195.577 189.099 195.364 189.398 195.08C189.696 194.795 189.923 194.447 190.08 194.036L194.277 194.312C194.064 195.321 193.627 196.202 192.967 196.955C192.313 197.7 191.468 198.283 190.431 198.702C189.401 199.114 188.212 199.32 186.862 199.32Z" fill="#FDFDFD"/>
</svg>
