<svg width="217" height="240" viewBox="0 0 217 240" fill="none" xmlns="http://www.w3.org/2000/svg">
<rect width="217" height="240" fill="#363636"/>
<path fill-rule="evenodd" clip-rule="evenodd" d="M109 32L163 140H55L109 32Z" fill="white"/>
<path d="M67.8381 176.182L73.1115 192.759H73.3139L78.598 176.182H83.7116L76.1903 198H70.2457L62.7138 176.182H67.8381ZM91.8642 198.32C90.1809 198.32 88.7321 197.979 87.5176 197.297C86.3102 196.608 85.3798 195.635 84.7264 194.378C84.073 193.114 83.7463 191.619 83.7463 189.893C83.7463 188.21 84.073 186.732 84.7264 185.461C85.3798 184.19 86.2995 183.199 87.4856 182.489C88.6788 181.778 90.0779 181.423 91.6831 181.423C92.7626 181.423 93.7676 181.597 94.698 181.945C95.6355 182.286 96.4522 182.801 97.1483 183.49C97.8514 184.179 98.3983 185.045 98.7889 186.089C99.1795 187.126 99.3748 188.341 99.3748 189.733V190.979H85.5574V188.167H95.1028C95.1028 187.513 94.9608 186.935 94.6767 186.43C94.3926 185.926 93.9984 185.532 93.4941 185.248C92.997 184.957 92.4181 184.811 91.7576 184.811C91.0687 184.811 90.4579 184.971 89.9252 185.29C89.3997 185.603 88.9877 186.026 88.6895 186.558C88.3912 187.084 88.2385 187.67 88.2314 188.316V190.99C88.2314 191.8 88.3805 192.499 88.6788 193.089C88.9842 193.678 89.4139 194.133 89.9679 194.452C90.5218 194.772 91.1788 194.932 91.9387 194.932C92.443 194.932 92.9047 194.861 93.3237 194.719C93.7427 194.577 94.1014 194.364 94.3997 194.08C94.698 193.795 94.9252 193.447 95.0815 193.036L99.2789 193.312C99.0659 194.321 98.6291 195.202 97.9686 195.955C97.3152 196.7 96.47 197.283 95.4331 197.702C94.4032 198.114 93.2136 198.32 91.8642 198.32ZM102.336 198V181.636H106.736V184.491H106.907C107.205 183.476 107.706 182.709 108.409 182.19C109.112 181.665 109.922 181.402 110.838 181.402C111.065 181.402 111.31 181.416 111.573 181.445C111.836 181.473 112.067 181.512 112.265 181.562V185.589C112.052 185.525 111.758 185.468 111.381 185.418C111.005 185.369 110.66 185.344 110.348 185.344C109.68 185.344 109.084 185.489 108.558 185.781C108.04 186.065 107.628 186.462 107.322 186.974C107.024 187.485 106.875 188.075 106.875 188.742V198H102.336ZM121.244 198.32C119.567 198.32 118.126 197.964 116.918 197.254C115.718 196.537 114.795 195.543 114.148 194.271C113.509 193 113.19 191.537 113.19 189.882C113.19 188.206 113.513 186.736 114.159 185.472C114.813 184.2 115.739 183.21 116.94 182.499C118.14 181.782 119.567 181.423 121.222 181.423C122.65 181.423 123.9 181.683 124.972 182.201C126.045 182.719 126.893 183.447 127.518 184.385C128.143 185.322 128.488 186.423 128.552 187.688H124.269C124.148 186.871 123.829 186.214 123.31 185.717C122.799 185.212 122.128 184.96 121.297 184.96C120.594 184.96 119.979 185.152 119.454 185.536C118.935 185.912 118.531 186.462 118.239 187.187C117.948 187.911 117.803 188.788 117.803 189.818C117.803 190.862 117.945 191.75 118.229 192.482C118.52 193.213 118.928 193.771 119.454 194.154C119.979 194.538 120.594 194.729 121.297 194.729C121.815 194.729 122.281 194.623 122.692 194.41C123.112 194.197 123.456 193.888 123.726 193.483C124.003 193.071 124.184 192.577 124.269 192.002H128.552C128.481 193.252 128.14 194.353 127.529 195.305C126.925 196.249 126.091 196.988 125.026 197.521C123.96 198.053 122.7 198.32 121.244 198.32ZM138.915 198.32C137.232 198.32 135.783 197.979 134.568 197.297C133.361 196.608 132.431 195.635 131.777 194.378C131.124 193.114 130.797 191.619 130.797 189.893C130.797 188.21 131.124 186.732 131.777 185.461C132.431 184.19 133.35 183.199 134.536 182.489C135.73 181.778 137.129 181.423 138.734 181.423C139.813 181.423 140.818 181.597 141.749 181.945C142.686 182.286 143.503 182.801 144.199 183.49C144.902 184.179 145.449 185.045 145.84 186.089C146.23 187.126 146.426 188.341 146.426 189.733V190.979H132.608V188.167H142.154C142.154 187.513 142.012 186.935 141.727 186.43C141.443 185.926 141.049 185.532 140.545 185.248C140.048 184.957 139.469 184.811 138.808 184.811C138.119 184.811 137.509 184.971 136.976 185.29C136.45 185.603 136.039 186.026 135.74 186.558C135.442 187.084 135.289 187.67 135.282 188.316V190.99C135.282 191.8 135.431 192.499 135.73 193.089C136.035 193.678 136.465 194.133 137.019 194.452C137.573 194.772 138.23 194.932 138.99 194.932C139.494 194.932 139.955 194.861 140.374 194.719C140.794 194.577 141.152 194.364 141.45 194.08C141.749 193.795 141.976 193.447 142.132 193.036L146.33 193.312C146.117 194.321 145.68 195.202 145.019 195.955C144.366 196.7 143.521 197.283 142.484 197.702C141.454 198.114 140.264 198.32 138.915 198.32ZM153.926 176.182V198H149.387V176.182H153.926Z" fill="#FDFDFD"/>
</svg>
