<svg width="217" height="240" viewBox="0 0 217 240" fill="none" xmlns="http://www.w3.org/2000/svg">
<rect width="217" height="240" fill="#363636"/>
<g clip-path="url(#clip0_92_1743)">
<path d="M109.127 32.918L49.9094 91.8633L109.127 151.092L168.081 91.8633L109.127 32.918Z" fill="#019833"/>
<path d="M109.117 38.3281V33.3477L50.3005 91.8731H55.3462L109.117 38.3281Z" fill="#66FE98"/>
<path d="M109.117 38.3281V33.3477L168.13 91.8731H162.673L109.117 38.3281Z" fill="#45FE02"/>
<path d="M109.117 145.682V151.189L50.3005 91.873H55.3462L109.117 145.682Z" fill="#017D17"/>
<path d="M109.117 145.682V151.189L168.13 91.873H162.673L109.117 145.682Z" fill="#005D04"/>
<path d="M79.5768 139.949H68.1752L63.7163 135.613V52.8594H60.1863L57.155 49.832V40.5742L60.2939 37.1855H100.17L103.759 40.7695V49.5488L100.776 53.1719H97.7645V81.1504L126.112 53.1719H124.538L121.233 49.627V40.3105L124.479 37.3418H164.727L167.914 40.5254V49.334L79.5768 139.949Z" fill="#656565"/>
<path d="M109.117 152L49 91.873L109.117 32L169 91.873L109.117 152ZM50.8383 91.873L109.117 150.164L167.152 91.873L109.117 33.8457L50.8383 91.873Z" fill="#656565"/>
<path d="M99.6617 42.6445L101.432 41.502L99.6226 39.627H61.2621L59.3064 41.5801V48.9531L61.4772 51.1113L62.5039 48.9531L61.1447 47.5957V42.3906L62.1617 41.4922L98.3807 41.541L99.6617 42.6445Z" fill="#FEFEFE"/>
<path d="M68.4295 48.7773V135.066L69.6518 136.219L68.674 138.055L66.1218 135.545V51.0137L68.4295 48.7773Z" fill="#FEFEFE"/>
<path d="M62.24 48.7773L61.4773 51.1113H66.1025L68.7817 48.7773H62.24Z" fill="#808080"/>
<path d="M127.061 48.8066L125.437 47.625V43.0254L127.129 41.3359H162.497L163.857 43.1426L165.812 41.6191L163.798 39.8125H125.78L123.883 41.6973V49.1289L125.838 50.9355L127.021 48.8066H127.061ZM95.1244 86.6875L91.4282 95.6426L133.094 53.8066L132.888 48.748L95.1244 86.6875Z" fill="#FEFEFE"/>
<path d="M99.5736 42.6152L101.431 41.502V48.7773L99.3096 50.8867H95.1929L95.1244 86.6582L91.4478 95.5938V48.7773H98.3122L99.5931 47.7324L99.5736 42.6152Z" fill="#808080"/>
<path d="M163.729 42.6348L165.783 41.6191V48.2598L78.2569 138.055H68.6741L69.6128 136.297H76.9661L163.739 46.6875L163.729 42.6348Z" fill="#808080"/>
<path d="M132.918 48.748L130.786 50.8867L125.897 50.9355L127.1 48.7871H132.967L132.918 48.748Z" fill="#808080"/>
<path d="M126.797 41.2676L125.447 42.6152V47.5957L126.63 48.7773H132.898V53.582L91.4283 95.6133V48.8359H98.3221L99.7399 47.4199V42.3906L98.4296 41.3848H62.1715L60.9785 42.5664V47.7129L62.191 48.9141H68.4981V135.057L69.6813 136.238H76.8488L163.739 46.5703V42.6152L162.39 41.2676H126.797Z" fill="#CCCCCC"/>
<path d="M85.7433 125.251H78.478L77.2263 123.991V37.9265H70.9877L69.7166 36.657V31.4128L70.9682 30.1628H107.314L108.693 31.2273V36.364L107.217 37.8484H100.372V84.2253L141.607 42.4285V37.7898H135.427L134.175 36.5203V31.4714L135.593 30.0457H171.275L172.692 31.4714V35.5437L85.7628 125.251H85.7433ZM78.5757 125.016H85.6455L172.477 35.4265V31.5203L171.187 30.2703H135.691L134.4 31.5593V36.4421L135.525 37.5554H141.861V42.5261L100.166 84.7918V37.614H107.119L108.468 36.2761V31.3445L107.236 30.3679H71.0562L69.9317 31.491V36.5203L71.0757 37.6628H77.4415V123.864L78.566 124.977L78.5757 125.016Z" fill="#808080"/>
<path d="M112.08 99.3243C112.014 99.3435 111.951 99.3732 111.894 99.4122L110.212 100.858C110.168 100.907 110.131 100.963 110.105 101.024L108.423 105.731C108.4 105.801 108.396 105.877 108.413 105.95C108.431 106.022 108.468 106.088 108.521 106.141L109.802 107.42C109.837 107.457 109.879 107.486 109.927 107.505C109.974 107.523 110.025 107.531 110.076 107.527H115.268C115.319 107.532 115.37 107.525 115.418 107.507C115.465 107.488 115.508 107.458 115.542 107.42L116.901 106.063C116.948 106.014 116.982 105.953 116.999 105.887L118.426 100.936C118.445 100.869 118.446 100.799 118.429 100.732C118.412 100.665 118.377 100.604 118.329 100.555L117.204 99.4317C117.168 99.3966 117.125 99.369 117.078 99.3506C117.031 99.3322 116.981 99.3232 116.93 99.3243H112.041H112.08ZM102.566 112.596C102.494 112.608 102.428 112.642 102.375 112.692C102.323 112.743 102.287 112.808 102.272 112.879L101.627 115.428C101.603 115.529 101.619 115.635 101.672 115.724C101.725 115.814 101.811 115.879 101.911 115.906H105.059L97.481 137.527C97.4641 137.576 97.4571 137.628 97.4602 137.679C97.4634 137.731 97.4767 137.781 97.4994 137.827C97.5221 137.874 97.5538 137.915 97.5926 137.949C97.6314 137.983 97.6766 138.009 97.7255 138.025H97.8526H108.873C108.956 138.025 109.037 137.998 109.103 137.949C109.17 137.9 109.22 137.831 109.244 137.752L109.968 135.438C109.985 135.389 109.991 135.337 109.987 135.286C109.983 135.235 109.969 135.185 109.945 135.139C109.922 135.094 109.889 135.053 109.849 135.021C109.809 134.988 109.763 134.964 109.714 134.949C109.675 134.94 109.635 134.94 109.596 134.949H107.103L114.593 113.094C114.61 113.046 114.617 112.995 114.614 112.944C114.61 112.893 114.597 112.844 114.574 112.798C114.551 112.753 114.52 112.712 114.481 112.679C114.442 112.646 114.397 112.621 114.349 112.606H114.231H102.566V112.596ZM137.641 112.674C137.558 112.693 137.482 112.737 137.426 112.801L135.128 115.389H131.48L129.055 112.869C129.018 112.832 128.974 112.802 128.926 112.782C128.877 112.762 128.825 112.751 128.772 112.752H120.069C119.989 112.752 119.91 112.777 119.844 112.822C119.778 112.867 119.727 112.931 119.697 113.006L118.896 115.399C118.879 115.447 118.872 115.499 118.875 115.55C118.878 115.602 118.891 115.652 118.914 115.698C118.937 115.745 118.968 115.786 119.007 115.82C119.046 115.854 119.091 115.88 119.14 115.897H119.267H121.594L114.339 137.283C114.322 137.331 114.315 137.382 114.318 137.433C114.322 137.484 114.335 137.533 114.358 137.579C114.381 137.624 114.412 137.665 114.451 137.698C114.49 137.731 114.535 137.756 114.583 137.772C114.625 137.782 114.669 137.782 114.711 137.772H123.98C124.06 137.774 124.138 137.75 124.203 137.704C124.268 137.659 124.317 137.593 124.342 137.518L125.056 135.438C125.073 135.389 125.08 135.337 125.077 135.286C125.074 135.234 125.06 135.184 125.038 135.138C125.015 135.091 124.983 135.05 124.944 135.016C124.906 134.982 124.86 134.956 124.812 134.94H124.694H123.071L127.696 120.379H136.027L130.757 137.293C130.726 137.391 130.736 137.498 130.783 137.59C130.831 137.681 130.913 137.75 131.011 137.781H140.076C140.151 137.783 140.225 137.761 140.288 137.719C140.351 137.677 140.4 137.617 140.428 137.547L141.229 135.594C141.268 135.498 141.267 135.391 141.227 135.296C141.187 135.2 141.11 135.125 141.014 135.086C140.969 135.077 140.923 135.077 140.877 135.086H139.293L143.997 120.272H151.966L146.608 137.274C146.58 137.373 146.592 137.48 146.641 137.571C146.69 137.662 146.773 137.73 146.872 137.762H156.816C156.895 137.766 156.973 137.744 157.038 137.7C157.103 137.656 157.152 137.592 157.178 137.518L157.98 135.438C157.998 135.389 158.007 135.337 158.005 135.285C158.004 135.233 157.991 135.182 157.97 135.134C157.948 135.087 157.917 135.044 157.878 135.009C157.839 134.974 157.794 134.947 157.745 134.93H157.618H155.662L161.588 115.701C161.608 115.641 161.613 115.576 161.602 115.514C161.592 115.451 161.567 115.391 161.529 115.34L159.691 112.869C159.653 112.823 159.605 112.786 159.551 112.761C159.497 112.735 159.438 112.722 159.378 112.723H152.347C152.293 112.722 152.239 112.732 152.189 112.752C152.139 112.772 152.093 112.802 152.054 112.84L149.844 115.272H145.933L143.635 112.762C143.598 112.724 143.554 112.694 143.505 112.674C143.456 112.654 143.404 112.644 143.351 112.645H137.641V112.674Z" fill="#CCCCCC"/>
<path d="M109.166 108.084C109.405 108.314 109.724 108.444 110.056 108.445H115.258C115.439 108.453 115.619 108.423 115.787 108.358C115.956 108.292 116.108 108.192 116.236 108.064L117.546 106.707C117.702 106.552 117.816 106.361 117.879 106.15L119.326 101.189C119.388 100.964 119.39 100.727 119.332 100.501C119.273 100.274 119.157 100.067 118.994 99.9003L117.859 98.7772C117.741 98.6573 117.599 98.5627 117.443 98.4989C117.286 98.4351 117.119 98.4036 116.95 98.4062H111.885C111.669 98.4577 111.468 98.5579 111.298 98.6991L109.626 100.164C109.464 100.313 109.342 100.502 109.274 100.711L107.592 105.408C107.511 105.64 107.496 105.89 107.55 106.13C107.603 106.37 107.723 106.59 107.895 106.766L109.196 108.064L109.166 108.084ZM116.735 100.271L117.478 101.004L116.158 105.535L115.053 106.648H110.291L109.401 105.76L110.926 101.482L112.344 100.271H116.735Z" fill="#656565"/>
<path d="M162.263 114.822L160.473 112.352C160.349 112.196 160.191 112.071 160.012 111.985C159.832 111.899 159.636 111.854 159.437 111.853H152.357C152.175 111.847 151.994 111.879 151.825 111.948C151.657 112.017 151.505 112.121 151.38 112.254L149.424 114.412H146.373L144.349 112.176C144.223 112.044 144.071 111.94 143.903 111.871C143.734 111.802 143.553 111.769 143.371 111.775H137.455C137.178 111.834 136.927 111.981 136.741 112.195L134.717 114.48H131.872L129.711 112.234C129.584 112.104 129.432 112.002 129.263 111.933C129.095 111.864 128.915 111.83 128.733 111.834H120.059C119.792 111.836 119.532 111.919 119.314 112.072C119.095 112.226 118.929 112.443 118.837 112.693L118.026 115.105C117.92 115.436 117.947 115.794 118.103 116.105C118.258 116.415 118.529 116.652 118.857 116.766C118.991 116.804 119.128 116.827 119.267 116.834H120.323L113.479 137.01C113.37 137.337 113.395 137.695 113.549 138.004C113.703 138.313 113.973 138.549 114.3 138.66C114.435 138.707 114.577 138.73 114.72 138.728H123.99C124.262 138.727 124.526 138.642 124.746 138.485C124.967 138.327 125.133 138.105 125.222 137.85L125.936 135.76C126.045 135.432 126.02 135.075 125.866 134.766C125.712 134.457 125.442 134.221 125.115 134.109C124.982 134.067 124.844 134.044 124.704 134.041H124.293L128.342 121.346H134.795L129.906 137.078C129.855 137.242 129.836 137.414 129.852 137.584C129.867 137.755 129.917 137.921 129.997 138.072C130.077 138.224 130.186 138.358 130.318 138.468C130.45 138.577 130.603 138.659 130.767 138.709C130.894 138.747 131.025 138.767 131.158 138.768H140.115C140.371 138.767 140.621 138.691 140.833 138.548C141.046 138.406 141.211 138.203 141.308 137.967L142.11 136.014C142.173 135.855 142.205 135.686 142.203 135.515C142.201 135.345 142.166 135.176 142.098 135.019C142.031 134.862 141.934 134.72 141.811 134.601C141.689 134.482 141.545 134.388 141.386 134.324C141.233 134.266 141.071 134.233 140.907 134.227H140.535L144.662 121.248H150.695L145.718 137.068C145.658 137.262 145.645 137.468 145.679 137.668C145.714 137.868 145.794 138.057 145.915 138.221C146.036 138.384 146.193 138.517 146.375 138.608C146.556 138.7 146.756 138.748 146.96 138.748H156.738C157.003 138.749 157.262 138.671 157.482 138.523C157.702 138.375 157.872 138.164 157.97 137.918L158.772 135.818C158.889 135.492 158.872 135.133 158.726 134.818C158.58 134.504 158.315 134.26 157.99 134.139C157.849 134.087 157.7 134.061 157.55 134.061H156.836L162.429 115.984C162.496 115.785 162.512 115.572 162.478 115.365C162.444 115.157 162.36 114.961 162.234 114.793L162.263 114.822ZM154.44 135.877H156.855L156.464 136.853H147.664L153.179 119.353H143.332L138.042 135.955H140.115L139.763 136.814H131.882L137.318 119.393H127.022L121.82 135.789H123.951L123.599 136.766H115.493L122.876 115.008H120.001L120.441 113.68H128.547L131.089 116.316H135.548L137.983 113.592H143.166L145.561 116.219H150.245L152.573 113.67H159.124L160.64 115.701L154.43 135.877H154.44Z" fill="#656565"/>
<path d="M109.978 134.1C109.853 134.066 109.725 134.046 109.596 134.041H108.384L115.493 113.396C115.548 113.234 115.57 113.063 115.559 112.892C115.548 112.721 115.502 112.554 115.426 112.401C115.35 112.247 115.244 112.11 115.114 111.998C114.985 111.886 114.834 111.8 114.671 111.746C114.539 111.703 114.4 111.68 114.261 111.678H102.37C102.132 111.732 101.914 111.853 101.741 112.025C101.568 112.198 101.447 112.416 101.392 112.654L100.747 115.213C100.706 115.381 100.699 115.555 100.727 115.726C100.754 115.897 100.815 116.06 100.906 116.207C100.997 116.355 101.116 116.482 101.256 116.583C101.397 116.684 101.556 116.756 101.725 116.795C101.829 116.804 101.934 116.804 102.038 116.795H103.759L96.601 137.205C96.495 137.535 96.5227 137.894 96.678 138.204C96.8333 138.514 97.104 138.752 97.4322 138.865C97.5653 138.905 97.7038 138.925 97.8429 138.924H108.883C109.159 138.924 109.429 138.836 109.653 138.673C109.876 138.51 110.041 138.279 110.124 138.016L110.848 135.691C110.949 135.36 110.914 135.002 110.75 134.696C110.587 134.391 110.309 134.162 109.978 134.061V134.1ZM98.5958 137.137L106.35 115.008H102.683L103.055 113.514H113.537L105.871 135.887H108.932L108.54 137.146L98.5958 137.137Z" fill="#656565"/>
</g>
<path d="M22.3381 177.182L27.6115 193.759H27.8139L33.098 177.182H38.2116L30.6903 199H24.7457L17.2138 177.182H22.3381ZM40.7525 199V182.636H45.2908V199H40.7525ZM43.0323 180.527C42.3576 180.527 41.7788 180.303 41.2958 179.856C40.82 179.401 40.582 178.858 40.582 178.226C40.582 177.601 40.82 177.065 41.2958 176.617C41.7788 176.163 42.3576 175.935 43.0323 175.935C43.707 175.935 44.2823 176.163 44.7582 176.617C45.2411 177.065 45.4826 177.601 45.4826 178.226C45.4826 178.858 45.2411 179.401 44.7582 179.856C44.2823 180.303 43.707 180.527 43.0323 180.527ZM48.9263 199V182.636H53.2516V185.523H53.4434C53.7843 184.565 54.3525 183.808 55.1479 183.254C55.9434 182.7 56.8951 182.423 58.003 182.423C59.1252 182.423 60.0804 182.704 60.8688 183.265C61.6571 183.819 62.1827 184.572 62.4455 185.523H62.6159C62.9498 184.586 63.5534 183.837 64.427 183.276C65.3077 182.707 66.3482 182.423 67.5485 182.423C69.0755 182.423 70.3148 182.91 71.2665 183.883C72.2253 184.849 72.7047 186.219 72.7047 187.995V199H68.177V188.89C68.177 187.981 67.9355 187.299 67.4526 186.844C66.9696 186.39 66.3659 186.163 65.6415 186.163C64.8176 186.163 64.1749 186.425 63.7132 186.951C63.2516 187.469 63.0208 188.155 63.0208 189.007V199H58.6209V188.794C58.6209 187.991 58.3901 187.352 57.9284 186.876C57.4739 186.401 56.8738 186.163 56.128 186.163C55.6238 186.163 55.1692 186.29 54.7644 186.546C54.3667 186.795 54.0506 187.146 53.8162 187.601C53.5819 188.048 53.4647 188.574 53.4647 189.178V199H48.9263ZM83.233 199V182.636H87.5582V185.523H87.75C88.0909 184.565 88.6591 183.808 89.4545 183.254C90.25 182.7 91.2017 182.423 92.3097 182.423C93.4318 182.423 94.3871 182.704 95.1754 183.265C95.9638 183.819 96.4893 184.572 96.7521 185.523H96.9226C97.2564 184.586 97.8601 183.837 98.7337 183.276C99.6143 182.707 100.655 182.423 101.855 182.423C103.382 182.423 104.621 182.91 105.573 183.883C106.532 184.849 107.011 186.219 107.011 187.995V199H102.484V188.89C102.484 187.981 102.242 187.299 101.759 186.844C101.276 186.39 100.673 186.163 99.9482 186.163C99.1243 186.163 98.4815 186.425 98.0199 186.951C97.5582 187.469 97.3274 188.155 97.3274 189.007V199H92.9276V188.794C92.9276 187.991 92.6967 187.352 92.2351 186.876C91.7805 186.401 91.1804 186.163 90.4347 186.163C89.9304 186.163 89.4759 186.29 89.071 186.546C88.6733 186.795 88.3572 187.146 88.1229 187.601C87.8885 188.048 87.7713 188.574 87.7713 189.178V199H83.233ZM117.99 199.32C116.335 199.32 114.904 198.968 113.696 198.265C112.496 197.555 111.569 196.567 110.916 195.303C110.262 194.032 109.936 192.558 109.936 190.882C109.936 189.192 110.262 187.714 110.916 186.45C111.569 185.179 112.496 184.192 113.696 183.489C114.904 182.778 116.335 182.423 117.99 182.423C119.645 182.423 121.072 182.778 122.272 183.489C123.48 184.192 124.41 185.179 125.064 186.45C125.717 187.714 126.044 189.192 126.044 190.882C126.044 192.558 125.717 194.032 125.064 195.303C124.41 196.567 123.48 197.555 122.272 198.265C121.072 198.968 119.645 199.32 117.99 199.32ZM118.011 195.804C118.764 195.804 119.392 195.591 119.897 195.165C120.401 194.732 120.781 194.142 121.037 193.396C121.299 192.651 121.431 191.802 121.431 190.85C121.431 189.898 121.299 189.05 121.037 188.304C120.781 187.558 120.401 186.969 119.897 186.536C119.392 186.102 118.764 185.886 118.011 185.886C117.251 185.886 116.612 186.102 116.093 186.536C115.582 186.969 115.195 187.558 114.932 188.304C114.676 189.05 114.549 189.898 114.549 190.85C114.549 191.802 114.676 192.651 114.932 193.396C115.195 194.142 115.582 194.732 116.093 195.165C116.612 195.591 117.251 195.804 118.011 195.804ZM137.699 182.636V186.045H127.844V182.636H137.699ZM130.081 178.716H134.62V193.972C134.62 194.391 134.684 194.717 134.811 194.952C134.939 195.179 135.117 195.339 135.344 195.431C135.578 195.523 135.848 195.57 136.154 195.57C136.367 195.57 136.58 195.552 136.793 195.516C137.006 195.474 137.169 195.442 137.283 195.42L137.997 198.798C137.77 198.869 137.45 198.95 137.038 199.043C136.626 199.142 136.125 199.202 135.536 199.224C134.442 199.266 133.483 199.121 132.659 198.787C131.843 198.453 131.207 197.935 130.752 197.232C130.298 196.528 130.074 195.641 130.081 194.568V178.716ZM140.655 199V182.636H145.193V199H140.655ZM142.935 180.527C142.26 180.527 141.681 180.303 141.198 179.856C140.722 179.401 140.484 178.858 140.484 178.226C140.484 177.601 140.722 177.065 141.198 176.617C141.681 176.163 142.26 175.935 142.935 175.935C143.609 175.935 144.185 176.163 144.661 176.617C145.143 177.065 145.385 177.601 145.385 178.226C145.385 178.858 145.143 179.401 144.661 179.856C144.185 180.303 143.609 180.527 142.935 180.527ZM156.222 199.32C154.567 199.32 153.136 198.968 151.929 198.265C150.729 197.555 149.802 196.567 149.148 195.303C148.495 194.032 148.168 192.558 148.168 190.882C148.168 189.192 148.495 187.714 149.148 186.45C149.802 185.179 150.729 184.192 151.929 183.489C153.136 182.778 154.567 182.423 156.222 182.423C157.877 182.423 159.305 182.778 160.505 183.489C161.712 184.192 162.643 185.179 163.296 186.45C163.949 187.714 164.276 189.192 164.276 190.882C164.276 192.558 163.949 194.032 163.296 195.303C162.643 196.567 161.712 197.555 160.505 198.265C159.305 198.968 157.877 199.32 156.222 199.32ZM156.243 195.804C156.996 195.804 157.625 195.591 158.129 195.165C158.633 194.732 159.013 194.142 159.269 193.396C159.532 192.651 159.663 191.802 159.663 190.85C159.663 189.898 159.532 189.05 159.269 188.304C159.013 187.558 158.633 186.969 158.129 186.536C157.625 186.102 156.996 185.886 156.243 185.886C155.483 185.886 154.844 186.102 154.326 186.536C153.814 186.969 153.427 187.558 153.165 188.304C152.909 189.05 152.781 189.898 152.781 190.85C152.781 191.802 152.909 192.651 153.165 193.396C153.427 194.142 153.814 194.732 154.326 195.165C154.844 195.591 155.483 195.804 156.243 195.804ZM171.765 189.54V199H167.227V182.636H171.552V185.523H171.744C172.106 184.572 172.714 183.819 173.566 183.265C174.418 182.704 175.452 182.423 176.666 182.423C177.802 182.423 178.793 182.672 179.638 183.169C180.483 183.666 181.14 184.376 181.609 185.3C182.078 186.216 182.312 187.31 182.312 188.581V199H177.774V189.391C177.781 188.389 177.525 187.608 177.007 187.047C176.488 186.479 175.775 186.195 174.866 186.195C174.255 186.195 173.715 186.326 173.246 186.589C172.785 186.852 172.422 187.235 172.16 187.739C171.904 188.237 171.773 188.837 171.765 189.54ZM199.504 187.303L195.349 187.558C195.278 187.203 195.126 186.884 194.891 186.599C194.657 186.308 194.348 186.077 193.964 185.907C193.588 185.729 193.137 185.641 192.612 185.641C191.908 185.641 191.315 185.79 190.832 186.088C190.349 186.379 190.108 186.77 190.108 187.26C190.108 187.651 190.264 187.981 190.577 188.251C190.889 188.521 191.425 188.737 192.185 188.901L195.147 189.497C196.738 189.824 197.924 190.349 198.705 191.074C199.487 191.798 199.877 192.75 199.877 193.929C199.877 195.001 199.561 195.942 198.929 196.752C198.304 197.562 197.445 198.194 196.351 198.648C195.264 199.096 194.011 199.32 192.59 199.32C190.424 199.32 188.698 198.869 187.413 197.967C186.134 197.058 185.385 195.822 185.165 194.259L189.629 194.025C189.763 194.685 190.09 195.19 190.609 195.538C191.127 195.879 191.791 196.049 192.601 196.049C193.396 196.049 194.036 195.896 194.518 195.591C195.009 195.278 195.257 194.877 195.264 194.387C195.257 193.975 195.083 193.638 194.742 193.375C194.401 193.105 193.876 192.899 193.165 192.757L190.332 192.192C188.734 191.873 187.544 191.319 186.763 190.531C185.989 189.742 185.602 188.737 185.602 187.516C185.602 186.464 185.886 185.559 186.454 184.799C187.029 184.039 187.835 183.453 188.872 183.041C189.916 182.629 191.138 182.423 192.537 182.423C194.604 182.423 196.23 182.86 197.416 183.734C198.609 184.607 199.305 185.797 199.504 187.303Z" fill="#FDFDFD"/>
<defs>
<clipPath id="clip0_92_1743">
<rect width="120" height="120" fill="white" transform="translate(49 32)"/>
</clipPath>
</defs>
</svg>
