<svg width="217" height="240" viewBox="0 0 217 240" fill="none" xmlns="http://www.w3.org/2000/svg">
<rect width="217" height="240" fill="#363636"/>
<g clip-path="url(#clip0_89_2305)">
<path d="M65.125 140.375L49 44.5625L79 32.1875L97.9375 43.4375L115.562 34.0625L151.938 48.125L131.5 152L65.125 140.375Z" fill="url(#paint0_linear_89_2305)"/>
<path d="M169 72.6875L153.437 34.4375L125.5 32L82 73.625L93.625 127.438L115.562 142.625L169 110.938L155.875 86.375L169 72.6875Z" fill="url(#paint1_linear_89_2305)"/>
<path d="M145 66.875L155.875 86.375L169 72.6875L159.438 48.875L145 66.875Z" fill="url(#paint2_linear_89_2305)"/>
<path d="M71.5 54.5H146.5V129.5H71.5V54.5Z" fill="black"/>
<path d="M78.625 115.438H106.75V120.125H78.625V115.438ZM115.375 90.8752L119.312 86.0002C122.125 88.2502 124.938 89.7502 128.5 89.7502C131.313 89.7502 133 88.6252 133 86.7502C133 85.0627 131.875 84.1252 126.812 82.8127C120.625 81.1252 116.687 79.4377 116.687 73.2502V73.0627C116.687 67.4377 121.188 63.6877 127.375 63.6877C131.523 63.6702 135.554 65.0581 138.812 67.6252L135.25 72.8752C132.986 71.1062 130.242 70.0607 127.375 69.8752C124.938 69.8752 123.438 71.0002 123.438 72.6877C123.438 74.7502 124.75 75.5002 130 76.8127C136.188 78.5002 139.75 80.7502 139.75 86.1877C139.75 92.3752 135.063 95.9377 128.5 95.9377C123.683 95.7606 119.063 93.9787 115.375 90.8752ZM109.375 64.2502L104.688 82.2502L99.4375 64.2502H94.1875L88.9375 82.2502L84.25 64.2502H76.9375L85.9375 95.3752H91.75L96.8125 77.3752L101.875 95.3752H107.688L116.687 64.2502H109.375Z" fill="white"/>
</g>
<path d="M37.8075 199L31.5646 177.182H36.6037L40.2152 192.342H40.3963L44.3807 177.182H48.6953L52.669 192.374H52.8608L56.4723 177.182H61.5114L55.2685 199H50.7727L46.6179 184.735H46.4474L42.3033 199H37.8075ZM69.5946 199.32C67.9114 199.32 66.4625 198.979 65.248 198.297C64.0407 197.608 63.1103 196.635 62.4569 195.378C61.8034 194.114 61.4767 192.619 61.4767 190.893C61.4767 189.21 61.8034 187.732 62.4569 186.461C63.1103 185.19 64.03 184.199 65.2161 183.489C66.4093 182.778 67.8084 182.423 69.4135 182.423C70.4931 182.423 71.498 182.597 72.4284 182.945C73.3659 183.286 74.1827 183.801 74.8787 184.49C75.5819 185.179 76.1287 186.045 76.5194 187.089C76.91 188.126 77.1053 189.341 77.1053 190.733V191.979H63.2878V189.167H72.8333C72.8333 188.513 72.6912 187.935 72.4071 187.43C72.123 186.926 71.7289 186.532 71.2246 186.248C70.7275 185.957 70.1486 185.811 69.4881 185.811C68.7992 185.811 68.1884 185.971 67.6557 186.29C67.1301 186.603 66.7182 187.026 66.4199 187.558C66.1216 188.084 65.9689 188.67 65.9618 189.316V191.99C65.9618 192.8 66.111 193.499 66.4093 194.089C66.7147 194.678 67.1444 195.133 67.6983 195.452C68.2523 195.772 68.9093 195.932 69.6692 195.932C70.1735 195.932 70.6351 195.861 71.0542 195.719C71.4732 195.577 71.8319 195.364 72.1301 195.08C72.4284 194.795 72.6557 194.447 72.812 194.036L77.0094 194.312C76.7963 195.321 76.3596 196.202 75.699 196.955C75.0456 197.7 74.2005 198.283 73.1635 198.702C72.1337 199.114 70.9441 199.32 69.5946 199.32ZM80.1522 199V177.182H84.6905V185.385H84.829C85.0279 184.945 85.3155 184.497 85.6919 184.043C86.0755 183.581 86.5726 183.197 87.1834 182.892C87.8013 182.58 88.5684 182.423 89.4846 182.423C90.6777 182.423 91.7786 182.736 92.7871 183.361C93.7956 183.979 94.6017 184.913 95.2054 186.163C95.8091 187.406 96.111 188.964 96.111 190.839C96.111 192.665 95.8162 194.206 95.2267 195.463C94.6444 196.713 93.8489 197.661 92.8404 198.308C91.839 198.947 90.7168 199.266 89.4739 199.266C88.5932 199.266 87.8439 199.121 87.226 198.83C86.6152 198.538 86.1145 198.173 85.7239 197.732C85.3333 197.285 85.035 196.834 84.829 196.379H84.6266V199H80.1522ZM84.5946 190.818C84.5946 191.791 84.7296 192.64 84.9995 193.364C85.2694 194.089 85.66 194.653 86.1713 195.058C86.6827 195.456 87.3042 195.655 88.0357 195.655C88.7743 195.655 89.3993 195.452 89.9107 195.048C90.4221 194.636 90.8091 194.067 91.0719 193.343C91.3418 192.612 91.4767 191.77 91.4767 190.818C91.4767 189.874 91.3453 189.043 91.0826 188.325C90.8198 187.608 90.4327 187.047 89.9213 186.642C89.41 186.237 88.7814 186.035 88.0357 186.035C87.2971 186.035 86.6721 186.23 86.1607 186.621C85.6564 187.011 85.2694 187.565 84.9995 188.283C84.7296 189 84.5946 189.845 84.5946 190.818ZM111.06 183.457C110.975 182.597 110.609 181.93 109.963 181.454C109.317 180.978 108.44 180.74 107.332 180.74C106.579 180.74 105.943 180.847 105.425 181.06C104.906 181.266 104.509 181.553 104.232 181.923C103.962 182.292 103.827 182.711 103.827 183.18C103.813 183.57 103.894 183.911 104.072 184.202C104.256 184.494 104.509 184.746 104.828 184.959C105.148 185.165 105.517 185.346 105.936 185.502C106.355 185.651 106.803 185.779 107.278 185.886L109.239 186.354C110.19 186.567 111.064 186.852 111.859 187.207C112.655 187.562 113.344 187.999 113.926 188.517C114.509 189.036 114.96 189.646 115.279 190.349C115.606 191.053 115.773 191.859 115.78 192.768C115.773 194.103 115.432 195.261 114.757 196.241C114.089 197.214 113.124 197.97 111.859 198.51C110.602 199.043 109.086 199.309 107.31 199.309C105.549 199.309 104.015 199.039 102.708 198.499C101.408 197.96 100.393 197.161 99.6612 196.102C98.9368 195.037 98.5568 193.719 98.5213 192.15H102.985C103.035 192.881 103.244 193.492 103.614 193.982C103.99 194.465 104.491 194.831 105.116 195.08C105.748 195.321 106.462 195.442 107.257 195.442C108.038 195.442 108.717 195.328 109.292 195.101C109.874 194.874 110.325 194.558 110.645 194.153C110.964 193.748 111.124 193.283 111.124 192.757C111.124 192.267 110.979 191.855 110.688 191.521C110.403 191.187 109.984 190.903 109.43 190.669C108.884 190.435 108.212 190.222 107.417 190.03L105.041 189.433C103.202 188.986 101.749 188.286 100.684 187.335C99.6186 186.383 99.0895 185.101 99.0966 183.489C99.0895 182.168 99.4411 181.013 100.151 180.026C100.869 179.039 101.852 178.268 103.102 177.714C104.352 177.161 105.773 176.884 107.364 176.884C108.983 176.884 110.396 177.161 111.604 177.714C112.818 178.268 113.763 179.039 114.438 180.026C115.112 181.013 115.46 182.157 115.482 183.457H111.06ZM127.501 182.636V186.045H117.647V182.636H127.501ZM119.884 178.716H124.422V193.972C124.422 194.391 124.486 194.717 124.614 194.952C124.742 195.179 124.92 195.339 125.147 195.431C125.381 195.523 125.651 195.57 125.956 195.57C126.17 195.57 126.383 195.552 126.596 195.516C126.809 195.474 126.972 195.442 127.086 195.42L127.8 198.798C127.572 198.869 127.253 198.95 126.841 199.043C126.429 199.142 125.928 199.202 125.339 199.224C124.245 199.266 123.286 199.121 122.462 198.787C121.645 198.453 121.01 197.935 120.555 197.232C120.101 196.528 119.877 195.641 119.884 194.568V178.716ZM137.675 199.32C136.02 199.32 134.589 198.968 133.382 198.265C132.182 197.555 131.255 196.567 130.601 195.303C129.948 194.032 129.621 192.558 129.621 190.882C129.621 189.192 129.948 187.714 130.601 186.45C131.255 185.179 132.182 184.192 133.382 183.489C134.589 182.778 136.02 182.423 137.675 182.423C139.33 182.423 140.758 182.778 141.958 183.489C143.165 184.192 144.096 185.179 144.749 186.45C145.403 187.714 145.729 189.192 145.729 190.882C145.729 192.558 145.403 194.032 144.749 195.303C144.096 196.567 143.165 197.555 141.958 198.265C140.758 198.968 139.33 199.32 137.675 199.32ZM137.697 195.804C138.449 195.804 139.078 195.591 139.582 195.165C140.086 194.732 140.466 194.142 140.722 193.396C140.985 192.651 141.116 191.802 141.116 190.85C141.116 189.898 140.985 189.05 140.722 188.304C140.466 187.558 140.086 186.969 139.582 186.536C139.078 186.102 138.449 185.886 137.697 185.886C136.937 185.886 136.297 186.102 135.779 186.536C135.268 186.969 134.881 187.558 134.618 188.304C134.362 189.05 134.234 189.898 134.234 190.85C134.234 191.802 134.362 192.651 134.618 193.396C134.881 194.142 135.268 194.732 135.779 195.165C136.297 195.591 136.937 195.804 137.697 195.804ZM148.68 199V182.636H153.08V185.491H153.251C153.549 184.476 154.05 183.709 154.753 183.19C155.456 182.665 156.265 182.402 157.182 182.402C157.409 182.402 157.654 182.416 157.917 182.445C158.18 182.473 158.41 182.512 158.609 182.562V186.589C158.396 186.525 158.101 186.468 157.725 186.418C157.349 186.369 157.004 186.344 156.692 186.344C156.024 186.344 155.427 186.489 154.902 186.781C154.383 187.065 153.971 187.462 153.666 187.974C153.368 188.485 153.219 189.075 153.219 189.742V199H148.68ZM160.956 199V182.636H165.281V185.523H165.473C165.814 184.565 166.382 183.808 167.177 183.254C167.973 182.7 168.924 182.423 170.032 182.423C171.154 182.423 172.11 182.704 172.898 183.265C173.686 183.819 174.212 184.572 174.475 185.523H174.645C174.979 184.586 175.583 183.837 176.456 183.276C177.337 182.707 178.377 182.423 179.578 182.423C181.105 182.423 182.344 182.91 183.296 183.883C184.255 184.849 184.734 186.219 184.734 187.995V199H180.206V188.89C180.206 187.981 179.965 187.299 179.482 186.844C178.999 186.39 178.395 186.163 177.671 186.163C176.847 186.163 176.204 186.425 175.743 186.951C175.281 187.469 175.05 188.155 175.05 189.007V199H170.65V188.794C170.65 187.991 170.419 187.352 169.958 186.876C169.503 186.401 168.903 186.163 168.157 186.163C167.653 186.163 167.199 186.29 166.794 186.546C166.396 186.795 166.08 187.146 165.846 187.601C165.611 188.048 165.494 188.574 165.494 189.178V199H160.956Z" fill="#FDFDFD"/>
<defs>
<linearGradient id="paint0_linear_89_2305" x1="11038.6" y1="622.588" x2="21460.4" y2="28312.7" gradientUnits="userSpaceOnUse">
<stop offset="0.28" stop-color="#00CDD7"/>
<stop offset="0.94" stop-color="#2086D7"/>
</linearGradient>
<linearGradient id="paint1_linear_89_2305" x1="5090.8" y1="4316" x2="22284.4" y2="19908.4" gradientUnits="userSpaceOnUse">
<stop offset="0.14" stop-color="#FFF045"/>
<stop offset="0.37" stop-color="#00CDD7"/>
</linearGradient>
<linearGradient id="paint2_linear_89_2305" x1="686491" y1="-2.65836e+06" x2="761889" y2="-2.72837e+06" gradientUnits="userSpaceOnUse">
<stop offset="0.28" stop-color="#00CDD7"/>
<stop offset="0.94" stop-color="#2086D7"/>
</linearGradient>
<clipPath id="clip0_89_2305">
<rect width="120" height="120" fill="white" transform="translate(49 32)"/>
</clipPath>
</defs>
</svg>
