<svg width="1920" height="800" viewBox="0 0 1920 800" fill="none" xmlns="http://www.w3.org/2000/svg">
<path d="M395.187 -73.9999C395.187 -9.82104 323.13 -9.82104 323.13 54.3693C323.13 118.56 395.187 118.56 395.187 182.739C395.187 246.917 323.13 246.929 323.13 311.119C323.13 375.31 395.187 375.298 395.187 439.488C395.187 503.679 323.13 503.679 323.13 567.858C323.13 632.036 395.187 632.048 395.187 696.238C395.187 760.429 323.13 760.429 323.13 824.619C323.13 888.81 395.187 888.81 395.187 953M179.122 -73.9999C179.122 -9.82104 107.065 -9.82104 107.065 54.3693C107.065 118.56 179.122 118.56 179.122 182.739C179.122 246.917 107.065 246.929 107.065 311.119C107.065 375.31 179.122 375.298 179.122 439.488C179.122 503.679 107.065 503.679 107.065 567.858C107.065 632.036 179.122 632.048 179.122 696.238C179.122 760.429 107.065 760.429 107.065 824.619C107.065 888.81 179.122 888.81 179.122 953M611.252 -73.9999C611.252 -9.82104 539.195 -9.82104 539.195 54.3693C539.195 118.56 611.252 118.56 611.252 182.739C611.252 246.917 539.195 246.929 539.195 311.119C539.195 375.31 611.252 375.298 611.252 439.488C611.252 503.679 539.195 503.679 539.195 567.858C539.195 632.036 611.252 632.048 611.252 696.238C611.252 760.429 539.195 760.429 539.195 824.619C539.195 888.81 611.252 888.81 611.252 953M935.349 -73.9999C935.349 -9.82104 863.292 -9.82104 863.292 54.3693C863.292 118.56 935.349 118.56 935.349 182.739C935.349 246.917 863.292 246.929 863.292 311.119C863.292 375.31 935.349 375.298 935.349 439.488C935.349 503.679 863.292 503.679 863.292 567.858C863.292 632.036 935.349 632.048 935.349 696.238C935.349 760.429 863.292 760.429 863.292 824.619C863.292 888.81 935.349 888.81 935.349 953M71.0896 -73.9999C71.0896 -9.82104 -0.967644 -9.82104 -0.967644 54.3693C-0.967644 118.56 71.0896 118.56 71.0896 182.739C71.0896 246.917 -0.967644 246.929 -0.967644 311.119C-0.967644 375.31 71.0896 375.298 71.0896 439.488C71.0896 503.679 -0.967644 503.679 -0.967644 567.858C-0.967644 632.036 71.0896 632.048 71.0896 696.238C71.0896 760.429 -0.967644 760.429 -0.967644 824.619C-0.967644 888.81 71.0896 888.81 71.0896 953M503.22 -73.9999C503.22 -9.82104 431.162 -9.82104 431.162 54.3693C431.162 118.56 503.22 118.56 503.22 182.739C503.22 246.917 431.162 246.929 431.162 311.119C431.162 375.31 503.22 375.298 503.22 439.488C503.22 503.679 431.162 503.679 431.162 567.858C431.162 632.036 503.22 632.048 503.22 696.238C503.22 760.429 431.162 760.429 431.162 824.619C431.162 888.81 503.22 888.81 503.22 953M827.317 -73.9999C827.317 -9.82104 755.26 -9.82104 755.26 54.3693C755.26 118.56 827.317 118.56 827.317 182.739C827.317 246.917 755.26 246.929 755.26 311.119C755.26 375.31 827.317 375.298 827.317 439.488C827.317 503.679 755.26 503.679 755.26 567.858C755.26 632.036 827.317 632.048 827.317 696.238C827.317 760.429 755.26 760.429 755.26 824.619C755.26 888.81 827.317 888.81 827.317 953M287.155 -73.9999C287.155 -9.82104 215.097 -9.82104 215.097 54.3693C215.097 118.56 287.155 118.56 287.155 182.739C287.155 246.917 215.097 246.929 215.097 311.119C215.097 375.31 287.155 375.298 287.155 439.488C287.155 503.679 215.097 503.679 215.097 567.858C215.097 632.036 287.155 632.048 287.155 696.238C287.155 760.429 215.097 760.429 215.097 824.619C215.097 888.81 287.155 888.81 287.155 953M719.284 -73.9999C719.284 -9.82104 647.227 -9.82104 647.227 54.3693C647.227 118.56 719.284 118.56 719.284 182.739C719.284 246.917 647.227 246.929 647.227 311.119C647.227 375.31 719.284 375.298 719.284 439.488C719.284 503.679 647.227 503.679 647.227 567.858C647.227 632.036 719.284 632.048 719.284 696.238C719.284 760.429 647.227 760.429 647.227 824.619C647.227 888.81 719.284 888.81 719.284 953M1043.38 -73.9999C1043.38 -9.82104 971.325 -9.82104 971.325 54.3693C971.325 118.56 1043.38 118.56 1043.38 182.739C1043.38 246.917 971.325 246.929 971.325 311.119C971.325 375.31 1043.38 375.298 1043.38 439.488C1043.38 503.679 971.325 503.679 971.325 567.858C971.325 632.036 1043.38 632.048 1043.38 696.238C1043.38 760.429 971.325 760.429 971.325 824.619C971.325 888.81 1043.38 888.81 1043.38 953M431.162 -73.9999C431.162 -9.82104 359.105 -9.82104 359.105 54.3693C359.105 118.56 431.162 118.56 431.162 182.739C431.162 246.917 359.105 246.929 359.105 311.119C359.105 375.31 431.162 375.298 431.162 439.488C431.162 503.679 359.105 503.679 359.105 567.858C359.105 632.036 431.162 632.048 431.162 696.238C431.162 760.429 359.105 760.429 359.105 824.619C359.105 888.81 431.162 888.81 431.162 953M215.097 -73.9999C215.097 -9.82104 143.04 -9.82104 143.04 54.3693C143.04 118.56 215.097 118.56 215.097 182.739C215.097 246.917 143.04 246.929 143.04 311.119C143.04 375.31 215.097 375.298 215.097 439.488C215.097 503.679 143.04 503.679 143.04 567.858C143.04 632.036 215.097 632.048 215.097 696.238C215.097 760.429 143.04 760.429 143.04 824.619C143.04 888.81 215.097 888.81 215.097 953M647.227 -73.9999C647.227 -9.82104 575.17 -9.82104 575.17 54.3693C575.17 118.56 647.227 118.56 647.227 182.739C647.227 246.917 575.17 246.929 575.17 311.119C575.17 375.31 647.227 375.298 647.227 439.488C647.227 503.679 575.17 503.679 575.17 567.858C575.17 632.036 647.227 632.048 647.227 696.238C647.227 760.429 575.17 760.429 575.17 824.619C575.17 888.81 647.227 888.81 647.227 953M971.325 -73.9999C971.325 -9.82104 899.267 -9.82104 899.267 54.3693C899.267 118.56 971.325 118.56 971.325 182.739C971.325 246.917 899.267 246.929 899.267 311.119C899.267 375.31 971.325 375.298 971.325 439.488C971.325 503.679 899.267 503.679 899.267 567.858C899.267 632.036 971.325 632.048 971.325 696.238C971.325 760.429 899.267 760.429 899.267 824.619C899.267 888.81 971.325 888.81 971.325 953M107.065 -73.9999C107.065 -9.82104 35.0076 -9.82104 35.0076 54.3693C35.0076 118.56 107.065 118.56 107.065 182.739C107.065 246.917 35.0076 246.929 35.0076 311.119C35.0076 375.31 107.065 375.298 107.065 439.488C107.065 503.679 35.0076 503.679 35.0076 567.858C35.0076 632.036 107.065 632.048 107.065 696.238C107.065 760.429 35.0076 760.429 35.0076 824.619C35.0076 888.81 107.065 888.81 107.065 953M539.195 -73.9999C539.195 -9.82104 467.137 -9.82104 467.137 54.3693C467.137 118.56 539.195 118.56 539.195 182.739C539.195 246.917 467.137 246.929 467.137 311.119C467.137 375.31 539.195 375.298 539.195 439.488C539.195 503.679 467.137 503.679 467.137 567.858C467.137 632.036 539.195 632.048 539.195 696.238C539.195 760.429 467.137 760.429 467.137 824.619C467.137 888.81 539.195 888.81 539.195 953M863.292 -73.9999C863.292 -9.82104 791.235 -9.82104 791.235 54.3693C791.235 118.56 863.292 118.56 863.292 182.739C863.292 246.917 791.235 246.929 791.235 311.119C791.235 375.31 863.292 375.298 863.292 439.488C863.292 503.679 791.235 503.679 791.235 567.858C791.235 632.036 863.292 632.048 863.292 696.238C863.292 760.429 791.235 760.429 791.235 824.619C791.235 888.81 863.292 888.81 863.292 953M323.13 -73.9999C323.13 -9.82104 251.073 -9.82104 251.073 54.3693C251.073 118.56 323.13 118.56 323.13 182.739C323.13 246.917 251.073 246.929 251.073 311.119C251.073 375.31 323.13 375.298 323.13 439.488C323.13 503.679 251.073 503.679 251.073 567.858C251.073 632.036 323.13 632.048 323.13 696.238C323.13 760.429 251.073 760.429 251.073 824.619C251.073 888.81 323.13 888.81 323.13 953M755.26 -73.9999C755.26 -9.82104 683.203 -9.82104 683.203 54.3693C683.203 118.56 755.26 118.56 755.26 182.739C755.26 246.917 683.203 246.929 683.203 311.119C683.203 375.31 755.26 375.298 755.26 439.488C755.26 503.679 683.203 503.679 683.203 567.858C683.203 632.036 755.26 632.048 755.26 696.238C755.26 760.429 683.203 760.429 683.203 824.619C683.203 888.81 755.26 888.81 755.26 953M1079.36 -73.9999C1079.36 -9.82104 1007.3 -9.82104 1007.3 54.3693C1007.3 118.56 1079.36 118.56 1079.36 182.739C1079.36 246.917 1007.3 246.929 1007.3 311.119C1007.3 375.31 1079.36 375.298 1079.36 439.488C1079.36 503.679 1007.3 503.679 1007.3 567.858C1007.3 632.036 1079.36 632.048 1079.36 696.238C1079.36 760.429 1007.3 760.429 1007.3 824.619C1007.3 888.81 1079.36 888.81 1079.36 953M-0.967545 -73.9999C-0.967545 -9.82104 -73.0248 -9.82104 -73.0248 54.3693C-73.0248 118.56 -0.967545 118.56 -0.967545 182.739C-0.967545 246.917 -73.0248 246.929 -73.0248 311.119C-73.0248 375.31 -0.967545 375.298 -0.967545 439.488C-0.967545 503.679 -73.0248 503.679 -73.0248 567.858C-73.0248 632.036 -0.967545 632.048 -0.967545 696.238C-0.967545 760.429 -73.0248 760.429 -73.0248 824.619C-73.0248 888.81 -0.967545 888.81 -0.967545 953M35.0077 -73.9999C35.0077 -9.82104 -37.0495 -9.82104 -37.0495 54.3693C-37.0495 118.56 35.0077 118.56 35.0077 182.739C35.0077 246.917 -37.0495 246.929 -37.0495 311.119C-37.0495 375.31 35.0077 375.298 35.0077 439.488C35.0077 503.679 -37.0495 503.679 -37.0495 567.858C-37.0495 632.036 35.0077 632.048 35.0077 696.238C35.0077 760.429 -37.0495 760.429 -37.0495 824.619C-37.0495 888.81 35.0077 888.81 35.0077 953M467.138 -73.9999C467.138 -9.82104 395.08 -9.82104 395.08 54.3693C395.08 118.56 467.138 118.56 467.138 182.739C467.138 246.917 395.08 246.929 395.08 311.119C395.08 375.31 467.138 375.298 467.138 439.488C467.138 503.679 395.08 503.679 395.08 567.858C395.08 632.036 467.138 632.048 467.138 696.238C467.138 760.429 395.08 760.429 395.08 824.619C395.08 888.81 467.138 888.81 467.138 953M251.073 -73.9999C251.073 -9.82104 179.015 -9.82104 179.015 54.3693C179.015 118.56 251.073 118.56 251.073 182.739C251.073 246.917 179.015 246.929 179.015 311.119C179.015 375.31 251.073 375.298 251.073 439.488C251.073 503.679 179.015 503.679 179.015 567.858C179.015 632.036 251.073 632.048 251.073 696.238C251.073 760.429 179.015 760.429 179.015 824.619C179.015 888.81 251.073 888.81 251.073 953M683.202 -73.9999C683.202 -9.82104 611.145 -9.82104 611.145 54.3693C611.145 118.56 683.202 118.56 683.202 182.739C683.202 246.917 611.145 246.929 611.145 311.119C611.145 375.31 683.202 375.298 683.202 439.488C683.202 503.679 611.145 503.679 611.145 567.858C611.145 632.036 683.202 632.048 683.202 696.238C683.202 760.429 611.145 760.429 611.145 824.619C611.145 888.81 683.202 888.81 683.202 953M1007.3 -73.9999C1007.3 -9.82104 935.242 -9.82104 935.242 54.3693C935.242 118.56 1007.3 118.56 1007.3 182.739C1007.3 246.917 935.242 246.929 935.242 311.119C935.242 375.31 1007.3 375.298 1007.3 439.488C1007.3 503.679 935.242 503.679 935.242 567.858C935.242 632.036 1007.3 632.048 1007.3 696.238C1007.3 760.429 935.242 760.429 935.242 824.619C935.242 888.81 1007.3 888.81 1007.3 953M143.04 -73.9999C143.04 -9.82104 70.9828 -9.82104 70.9828 54.3693C70.9828 118.56 143.04 118.56 143.04 182.739C143.04 246.917 70.9828 246.929 70.9828 311.119C70.9828 375.31 143.04 375.298 143.04 439.488C143.04 503.679 70.9828 503.679 70.9828 567.858C70.9828 632.036 143.04 632.048 143.04 696.238C143.04 760.429 70.9828 760.429 70.9828 824.619C70.9828 888.81 143.04 888.81 143.04 953M575.17 -73.9999C575.17 -9.82104 503.113 -9.82104 503.113 54.3693C503.113 118.56 575.17 118.56 575.17 182.739C575.17 246.917 503.113 246.929 503.113 311.119C503.113 375.31 575.17 375.298 575.17 439.488C575.17 503.679 503.113 503.679 503.113 567.858C503.113 632.036 575.17 632.048 575.17 696.238C575.17 760.429 503.113 760.429 503.113 824.619C503.113 888.81 575.17 888.81 575.17 953M899.267 -73.9999C899.267 -9.82104 827.21 -9.82104 827.21 54.3693C827.21 118.56 899.267 118.56 899.267 182.739C899.267 246.917 827.21 246.929 827.21 311.119C827.21 375.31 899.267 375.298 899.267 439.488C899.267 503.679 827.21 503.679 827.21 567.858C827.21 632.036 899.267 632.048 899.267 696.238C899.267 760.429 827.21 760.429 827.21 824.619C827.21 888.81 899.267 888.81 899.267 953M359.105 -73.9999C359.105 -9.82104 287.048 -9.82104 287.048 54.3693C287.048 118.56 359.105 118.56 359.105 182.739C359.105 246.917 287.048 246.929 287.048 311.119C287.048 375.31 359.105 375.298 359.105 439.488C359.105 503.679 287.048 503.679 287.048 567.858C287.048 632.036 359.105 632.048 359.105 696.238C359.105 760.429 287.048 760.429 287.048 824.619C287.048 888.81 359.105 888.81 359.105 953M791.235 -73.9999C791.235 -9.82104 719.178 -9.82104 719.178 54.3693C719.178 118.56 791.235 118.56 791.235 182.739C791.235 246.917 719.178 246.929 719.178 311.119C719.178 375.31 791.235 375.298 791.235 439.488C791.235 503.679 719.178 503.679 719.178 567.858C719.178 632.036 791.235 632.048 791.235 696.238C791.235 760.429 719.178 760.429 719.178 824.619C719.178 888.81 791.235 888.81 791.235 953M1115.33 -73.9999C1115.33 -9.82104 1043.28 -9.82104 1043.28 54.3693C1043.28 118.56 1115.33 118.56 1115.33 182.739C1115.33 246.917 1043.28 246.929 1043.28 311.119C1043.28 375.31 1115.33 375.298 1115.33 439.488C1115.33 503.679 1043.28 503.679 1043.28 567.858C1043.28 632.036 1115.33 632.048 1115.33 696.238C1115.33 760.429 1043.28 760.429 1043.28 824.619C1043.28 888.81 1115.33 888.81 1115.33 953M1155.36 -74C1155.36 -9.82119 1083.31 -9.8212 1083.31 54.3692C1083.31 118.56 1155.36 118.56 1155.36 182.738C1155.36 246.917 1083.31 246.929 1083.31 311.119C1083.31 375.31 1155.36 375.298 1155.36 439.488C1155.36 503.679 1083.31 503.679 1083.31 567.858C1083.31 632.036 1155.36 632.048 1155.36 696.238C1155.36 760.429 1083.31 760.429 1083.31 824.619C1083.31 888.81 1155.36 888.809 1155.36 953M1195.4 -74C1195.4 -9.82119 1123.34 -9.8212 1123.34 54.3692C1123.34 118.56 1195.4 118.56 1195.4 182.738C1195.4 246.917 1123.34 246.929 1123.34 311.119C1123.34 375.31 1195.4 375.298 1195.4 439.488C1195.4 503.679 1123.34 503.679 1123.34 567.858C1123.34 632.036 1195.4 632.048 1195.4 696.238C1195.4 760.429 1123.34 760.429 1123.34 824.619C1123.34 888.81 1195.4 888.809 1195.4 953M1235.43 -74C1235.43 -9.82119 1163.37 -9.8212 1163.37 54.3692C1163.37 118.56 1235.43 118.56 1235.43 182.738C1235.43 246.917 1163.37 246.929 1163.37 311.119C1163.37 375.31 1235.43 375.298 1235.43 439.488C1235.43 503.679 1163.37 503.679 1163.37 567.858C1163.37 632.036 1235.43 632.048 1235.43 696.238C1235.43 760.429 1163.37 760.429 1163.37 824.619C1163.37 888.81 1235.43 888.809 1235.43 953M1275.46 -74C1275.46 -9.82119 1203.4 -9.8212 1203.4 54.3692C1203.4 118.56 1275.46 118.56 1275.46 182.738C1275.46 246.917 1203.4 246.929 1203.4 311.119C1203.4 375.31 1275.46 375.298 1275.46 439.488C1275.46 503.679 1203.4 503.679 1203.4 567.858C1203.4 632.036 1275.46 632.048 1275.46 696.238C1275.46 760.429 1203.4 760.429 1203.4 824.619C1203.4 888.81 1275.46 888.809 1275.46 953M1315.49 -74C1315.49 -9.82119 1243.43 -9.8212 1243.43 54.3692C1243.43 118.56 1315.49 118.56 1315.49 182.738C1315.49 246.917 1243.43 246.929 1243.43 311.119C1243.43 375.31 1315.49 375.298 1315.49 439.488C1315.49 503.679 1243.43 503.679 1243.43 567.858C1243.43 632.036 1315.49 632.048 1315.49 696.238C1315.49 760.429 1243.43 760.429 1243.43 824.619C1243.43 888.81 1315.49 888.809 1315.49 953M1355.52 -74C1355.52 -9.82119 1283.47 -9.8212 1283.47 54.3692C1283.47 118.56 1355.52 118.56 1355.52 182.738C1355.52 246.917 1283.47 246.929 1283.47 311.119C1283.47 375.31 1355.52 375.298 1355.52 439.488C1355.52 503.679 1283.47 503.679 1283.47 567.858C1283.47 632.036 1355.52 632.048 1355.52 696.238C1355.52 760.429 1283.47 760.429 1283.47 824.619C1283.47 888.81 1355.52 888.809 1355.52 953M1395.55 -74C1395.55 -9.82119 1323.5 -9.8212 1323.5 54.3692C1323.5 118.56 1395.55 118.56 1395.55 182.738C1395.55 246.917 1323.5 246.929 1323.5 311.119C1323.5 375.31 1395.55 375.298 1395.55 439.488C1395.55 503.679 1323.5 503.679 1323.5 567.858C1323.5 632.036 1395.55 632.048 1395.55 696.238C1395.55 760.429 1323.5 760.429 1323.5 824.619C1323.5 888.81 1395.55 888.809 1395.55 953M1435.59 -74C1435.59 -9.82119 1363.53 -9.8212 1363.53 54.3692C1363.53 118.56 1435.59 118.56 1435.59 182.738C1435.59 246.917 1363.53 246.929 1363.53 311.119C1363.53 375.31 1435.59 375.298 1435.59 439.488C1435.59 503.679 1363.53 503.679 1363.53 567.858C1363.53 632.036 1435.59 632.048 1435.59 696.238C1435.59 760.429 1363.53 760.429 1363.53 824.619C1363.53 888.81 1435.59 888.809 1435.59 953M1475.62 -74C1475.62 -9.82119 1403.56 -9.8212 1403.56 54.3692C1403.56 118.56 1475.62 118.56 1475.62 182.738C1475.62 246.917 1403.56 246.929 1403.56 311.119C1403.56 375.31 1475.62 375.298 1475.62 439.488C1475.62 503.679 1403.56 503.679 1403.56 567.858C1403.56 632.036 1475.62 632.048 1475.62 696.238C1475.62 760.429 1403.56 760.429 1403.56 824.619C1403.56 888.81 1475.62 888.809 1475.62 953M1515.65 -74C1515.65 -9.82119 1443.59 -9.8212 1443.59 54.3692C1443.59 118.56 1515.65 118.56 1515.65 182.738C1515.65 246.917 1443.59 246.929 1443.59 311.119C1443.59 375.31 1515.65 375.298 1515.65 439.488C1515.65 503.679 1443.59 503.679 1443.59 567.858C1443.59 632.036 1515.65 632.048 1515.65 696.238C1515.65 760.429 1443.59 760.429 1443.59 824.619C1443.59 888.81 1515.65 888.809 1515.65 953M1555.68 -74C1555.68 -9.82119 1483.62 -9.8212 1483.62 54.3692C1483.62 118.56 1555.68 118.56 1555.68 182.738C1555.68 246.917 1483.62 246.929 1483.62 311.119C1483.62 375.31 1555.68 375.298 1555.68 439.488C1555.68 503.679 1483.62 503.679 1483.62 567.858C1483.62 632.036 1555.68 632.048 1555.68 696.238C1555.68 760.429 1483.62 760.429 1483.62 824.619C1483.62 888.81 1555.68 888.809 1555.68 953M1595.71 -74C1595.71 -9.82119 1523.66 -9.8212 1523.66 54.3692C1523.66 118.56 1595.71 118.56 1595.71 182.738C1595.71 246.917 1523.66 246.929 1523.66 311.119C1523.66 375.31 1595.71 375.298 1595.71 439.488C1595.71 503.679 1523.66 503.679 1523.66 567.858C1523.66 632.036 1595.71 632.048 1595.71 696.238C1595.71 760.429 1523.66 760.429 1523.66 824.619C1523.66 888.81 1595.71 888.809 1595.71 953M1635.75 -74C1635.75 -9.82119 1563.69 -9.8212 1563.69 54.3692C1563.69 118.56 1635.75 118.56 1635.75 182.738C1635.75 246.917 1563.69 246.929 1563.69 311.119C1563.69 375.31 1635.75 375.298 1635.75 439.488C1635.75 503.679 1563.69 503.679 1563.69 567.858C1563.69 632.036 1635.75 632.048 1635.75 696.238C1635.75 760.429 1563.69 760.429 1563.69 824.619C1563.69 888.81 1635.75 888.809 1635.75 953M1675.78 -74C1675.78 -9.82119 1603.72 -9.8212 1603.72 54.3692C1603.72 118.56 1675.78 118.56 1675.78 182.738C1675.78 246.917 1603.72 246.929 1603.72 311.119C1603.72 375.31 1675.78 375.298 1675.78 439.488C1675.78 503.679 1603.72 503.679 1603.72 567.858C1603.72 632.036 1675.78 632.048 1675.78 696.238C1675.78 760.429 1603.72 760.429 1603.72 824.619C1603.72 888.81 1675.78 888.809 1675.78 953M1715.81 -74C1715.81 -9.82119 1643.75 -9.8212 1643.75 54.3692C1643.75 118.56 1715.81 118.56 1715.81 182.738C1715.81 246.917 1643.75 246.929 1643.75 311.119C1643.75 375.31 1715.81 375.298 1715.81 439.488C1715.81 503.679 1643.75 503.679 1643.75 567.858C1643.75 632.036 1715.81 632.048 1715.81 696.238C1715.81 760.429 1643.75 760.429 1643.75 824.619C1643.75 888.81 1715.81 888.809 1715.81 953M1755.84 -74C1755.84 -9.82119 1683.78 -9.8212 1683.78 54.3692C1683.78 118.56 1755.84 118.56 1755.84 182.738C1755.84 246.917 1683.78 246.929 1683.78 311.119C1683.78 375.31 1755.84 375.298 1755.84 439.488C1755.84 503.679 1683.78 503.679 1683.78 567.858C1683.78 632.036 1755.84 632.048 1755.84 696.238C1755.84 760.429 1683.78 760.429 1683.78 824.619C1683.78 888.81 1755.84 888.809 1755.84 953M1795.87 -74C1795.87 -9.82119 1723.82 -9.8212 1723.82 54.3692C1723.82 118.56 1795.87 118.56 1795.87 182.738C1795.87 246.917 1723.82 246.929 1723.82 311.119C1723.82 375.31 1795.87 375.298 1795.87 439.488C1795.87 503.679 1723.82 503.679 1723.82 567.858C1723.82 632.036 1795.87 632.048 1795.87 696.238C1795.87 760.429 1723.82 760.429 1723.82 824.619C1723.82 888.81 1795.87 888.809 1795.87 953M1835.9 -74C1835.9 -9.82119 1763.85 -9.8212 1763.85 54.3692C1763.85 118.56 1835.9 118.56 1835.9 182.738C1835.9 246.917 1763.85 246.929 1763.85 311.119C1763.85 375.31 1835.9 375.298 1835.9 439.488C1835.9 503.679 1763.85 503.679 1763.85 567.858C1763.85 632.036 1835.9 632.048 1835.9 696.238C1835.9 760.429 1763.85 760.429 1763.85 824.619C1763.85 888.81 1835.9 888.809 1835.9 953M1875.94 -74C1875.94 -9.82119 1803.88 -9.8212 1803.88 54.3692C1803.88 118.56 1875.94 118.56 1875.94 182.738C1875.94 246.917 1803.88 246.929 1803.88 311.119C1803.88 375.31 1875.94 375.298 1875.94 439.488C1875.94 503.679 1803.88 503.679 1803.88 567.858C1803.88 632.036 1875.94 632.048 1875.94 696.238C1875.94 760.429 1803.88 760.429 1803.88 824.619C1803.88 888.81 1875.94 888.809 1875.94 953M1915.97 -74C1915.97 -9.82119 1843.91 -9.8212 1843.91 54.3692C1843.91 118.56 1915.97 118.56 1915.97 182.738C1915.97 246.917 1843.91 246.929 1843.91 311.119C1843.91 375.31 1915.97 375.298 1915.97 439.488C1915.97 503.679 1843.91 503.679 1843.91 567.858C1843.91 632.036 1915.97 632.048 1915.97 696.238C1915.97 760.429 1843.91 760.429 1843.91 824.619C1843.91 888.81 1915.97 888.809 1915.97 953M1956 -74C1956 -9.82119 1883.94 -9.8212 1883.94 54.3692C1883.94 118.56 1956 118.56 1956 182.738C1956 246.917 1883.94 246.929 1883.94 311.119C1883.94 375.31 1956 375.298 1956 439.488C1956 503.679 1883.94 503.679 1883.94 567.858C1883.94 632.036 1956 632.048 1956 696.238C1956 760.429 1883.94 760.429 1883.94 824.619C1883.94 888.81 1956 888.809 1956 953M-36.9428 -74C-36.9428 -9.82119 -109 -9.8212 -109 54.3692C-109 118.56 -36.9428 118.56 -36.9428 182.738C-36.9428 246.917 -109 246.929 -109 311.119C-109 375.31 -36.9428 375.298 -36.9428 439.488C-36.9428 503.679 -109 503.679 -109 567.858C-109 632.036 -36.9428 632.048 -36.9428 696.238C-36.9428 760.429 -109 760.429 -109 824.619C-109 888.81 -36.9428 888.809 -36.9428 953" stroke="black" stroke-miterlimit="10"/>
</svg>
